<svg width="32" height="32" viewBox="0 0 32 32" fill="none" xmlns="http://www.w3.org/2000/svg">
<path d="M2.76138 6.13334C3.82804 1.52001 10.7747 1.52001 11.828 6.13334C12.4547 8.84001 10.7347 11.1333 9.24138 12.56C8.14804 13.6 6.42804 13.5867 5.33471 12.56C3.85471 11.1333 2.13471 8.84001 2.76138 6.13334Z" stroke="#30C36D" stroke-width="1.5"/>
<path d="M20.0933 22.1333C21.16 17.52 28.1467 17.52 29.2133 22.1333C29.84 24.84 28.12 27.1333 26.6133 28.56C25.52 29.6 23.7867 29.5867 22.6933 28.56C21.1867 27.1333 19.4667 24.84 20.0933 22.1333Z" stroke="#30C36D" stroke-width="1.5"/>
<path d="M16.0003 6.66666H19.5736C22.0403 6.66666 23.1869 9.71999 21.3336 11.3467L10.6803 20.6667C8.82692 22.28 9.97358 25.3333 12.4269 25.3333H16.0003" stroke="#30C36D" stroke-width="1.5" stroke-linecap="round" stroke-linejoin="round"/>
<path d="M7.31496 7.33332H7.33036" stroke="#30C36D" stroke-width="2" stroke-linecap="round" stroke-linejoin="round"/>
<path d="M24.6489 23.3333H24.6643" stroke="#30C36D" stroke-width="2" stroke-linecap="round" stroke-linejoin="round"/>
</svg>
