<svg width="32" height="32" viewBox="0 0 32 32" fill="none" xmlns="http://www.w3.org/2000/svg">
<path d="M11.9987 25.3333C11.9987 26.3333 11.7187 27.28 11.2254 28.08C10.3054 29.6267 8.61203 30.6667 6.66536 30.6667C4.7187 30.6667 3.02537 29.6267 2.10537 28.08C1.61203 27.28 1.33203 26.3333 1.33203 25.3333C1.33203 22.3867 3.7187 20 6.66536 20C9.61203 20 11.9987 22.3867 11.9987 25.3333Z" stroke="#30C36D" stroke-width="1.5" stroke-miterlimit="10" stroke-linecap="round" stroke-linejoin="round"/>
<path d="M4.58594 25.3327L5.90594 26.6527L8.74594 24.026" stroke="#30C36D" stroke-width="1.5" stroke-linecap="round" stroke-linejoin="round"/>
<path d="M23.6672 9.39995C23.3472 9.34661 23.0139 9.3333 22.6672 9.3333H9.33391C8.96057 9.3333 8.60057 9.35996 8.25391 9.41329C8.44057 9.03996 8.70724 8.69334 9.02724 8.37334L13.3606 4.02666C15.1872 2.21332 18.1472 2.21332 19.9739 4.02666L22.3072 6.3866C23.1606 7.2266 23.6139 8.29328 23.6672 9.39995Z" stroke="#30C36D" stroke-width="1.5" stroke-linecap="round" stroke-linejoin="round"/>
<path d="M29.3346 16V22.6667C29.3346 26.6667 26.668 29.3333 22.668 29.3333H10.1746C10.588 28.9867 10.948 28.56 11.228 28.08C11.7213 27.28 12.0013 26.3333 12.0013 25.3333C12.0013 22.3867 9.61464 20 6.66797 20C5.06797 20 3.6413 20.7067 2.66797 21.8133V16C2.66797 12.3733 4.85463 9.84001 8.25463 9.41334C8.6013 9.36001 8.9613 9.33334 9.33464 9.33334H22.668C23.0146 9.33334 23.348 9.34666 23.668 9.39999C27.108 9.79999 29.3346 12.3467 29.3346 16Z" stroke="#30C36D" stroke-width="1.5" stroke-linecap="round" stroke-linejoin="round"/>
<path d="M29.3346 16.6667H25.3346C23.868 16.6667 22.668 17.8667 22.668 19.3333C22.668 20.8 23.868 22 25.3346 22H29.3346" stroke="#30C36D" stroke-width="1.5" stroke-linecap="round" stroke-linejoin="round"/>
</svg>
