<svg width="32" height="32" viewBox="0 0 32 32" fill="none" xmlns="http://www.w3.org/2000/svg">
<path d="M24 25.1467H22.9867C21.92 25.1467 20.9067 25.56 20.16 26.3067L17.88 28.5601C16.84 29.5867 15.1467 29.5867 14.1067 28.5601L11.8267 26.3067C11.08 25.56 10.0533 25.1467 9 25.1467H8C5.78667 25.1467 4 23.3734 4 21.1867V6.63998C4 4.45332 5.78667 2.68002 8 2.68002H24C26.2133 2.68002 28 4.45332 28 6.63998V21.1867C28 23.36 26.2133 25.1467 24 25.1467Z" stroke="#30C36D" stroke-width="1.5" stroke-miterlimit="10" stroke-linecap="round" stroke-linejoin="round"/>
<path d="M9.33398 12.2134C9.33398 10.9734 10.3473 9.95996 11.5873 9.95996C12.8273 9.95996 13.8407 10.9734 13.8407 12.2134C13.8407 14.72 10.2806 14.9867 9.49398 17.3734C9.33398 17.8667 9.74731 18.36 10.2673 18.36H13.8407" stroke="#30C36D" stroke-width="1.5" stroke-linecap="round" stroke-linejoin="round"/>
<path d="M21.3863 18.3466V10.7334C21.3863 10.3867 21.1597 10.08 20.8263 9.98662C20.493 9.89328 20.133 10.0266 19.9464 10.32C18.9864 11.8666 17.9464 13.6266 17.0397 15.1733C16.893 15.4266 16.893 15.76 17.0397 16.0133C17.1864 16.2666 17.4664 16.4266 17.773 16.4266H22.6664" stroke="#30C36D" stroke-width="1.5" stroke-linecap="round" stroke-linejoin="round"/>
</svg>
