<svg width="16" height="17" viewBox="0 0 16 17" fill="none" xmlns="http://www.w3.org/2000/svg">
<g clip-path="url(#clip0_207_2017)">
<path d="M8 16.5C12.4107 16.5 16 12.9107 16 8.5C16 4.08934 12.4107 0.5 8 0.5C3.5893 0.5 0 4.08934 0 8.5C0 12.9107 3.58934 16.5 8 16.5ZM8 1.56665C11.824 1.56665 14.9334 4.67597 14.9334 8.5C14.9334 12.324 11.824 15.4334 8 15.4334C4.17597 15.4334 1.06665 12.324 1.06665 8.5C1.06665 4.67597 4.17602 1.56665 8 1.56665Z" fill="#30C36D"/>
<path d="M10.3335 11.0493C10.4321 11.1293 10.5494 11.1666 10.6668 11.1666C10.7467 11.1668 10.8256 11.1489 10.8977 11.1143C10.9697 11.0796 11.033 11.0292 11.0828 10.9666C11.2668 10.7373 11.2294 10.4013 11.0001 10.2173L8.53345 8.24394V4.23328C8.53345 3.93994 8.29346 3.69995 8.00012 3.69995C7.70678 3.69995 7.4668 3.93994 7.4668 4.23328V8.49996C7.4668 8.66264 7.54148 8.81463 7.66679 8.91594L10.3335 11.0493Z" fill="#30C36D"/>
</g>
<defs>
<clipPath id="clip0_207_2017">
<rect width="16" height="16" fill="white" transform="translate(0 0.5)"/>
</clipPath>
</defs>
</svg>
