<svg width="18" height="19" viewBox="0 0 18 19" fill="none" xmlns="http://www.w3.org/2000/svg">
<path d="M8.99916 12.5C8.90046 12.5006 8.80261 12.4817 8.71123 12.4443C8.61985 12.407 8.53674 12.352 8.46666 12.2825L3.96666 7.78252C3.82543 7.64129 3.74609 7.44974 3.74609 7.25002C3.74609 7.05029 3.82543 6.85874 3.96666 6.71752C4.10789 6.57629 4.29944 6.49695 4.49916 6.49695C4.69889 6.49695 4.89043 6.57629 5.03166 6.71752L8.99916 10.6925L12.9667 6.72502C13.1101 6.60215 13.2947 6.53794 13.4835 6.54523C13.6722 6.55252 13.8513 6.63077 13.9848 6.76434C14.1184 6.89792 14.1967 7.07697 14.2039 7.26573C14.2112 7.45448 14.147 7.63904 14.0242 7.78252L9.52416 12.2825C9.38447 12.4211 9.19592 12.4992 8.99916 12.5Z" fill="#181A19"/>
</svg>
