<svg width="14" height="14" viewBox="0 0 14 14" fill="none" xmlns="http://www.w3.org/2000/svg">
<g clip-path="url(#clip0_207_2198)">
<path d="M6.99924 4.43262C5.58244 4.43262 4.43164 5.58342 4.43164 7.00022C4.43164 8.41702 5.58244 9.57062 6.99924 9.57062C8.41604 9.57062 9.56964 8.41702 9.56964 7.00022C9.56964 5.58342 8.41604 4.43262 6.99924 4.43262Z" fill="white"/>
<path d="M10.8752 0H3.1248C1.4028 0 0 1.4028 0 3.1248V10.8752C0 12.6 1.4028 14 3.1248 14H10.8752C12.6 14 14 12.6 14 10.8752V3.1248C14 1.4028 12.6 0 10.8752 0ZM7 11.536C4.4996 11.536 2.464 9.5004 2.464 7C2.464 4.4996 4.4996 2.4668 7 2.4668C9.5004 2.4668 11.536 4.4996 11.536 7C11.536 9.5004 9.5004 11.536 7 11.536ZM11.6312 3.29C11.102 3.29 10.6708 2.8616 10.6708 2.3324C10.6708 1.8032 11.102 1.372 11.6312 1.372C12.1604 1.372 12.5916 1.8032 12.5916 2.3324C12.5916 2.8616 12.1604 3.29 11.6312 3.29Z" fill="white"/>
</g>
<defs>
<clipPath id="clip0_207_2198">
<rect width="14" height="14" fill="white"/>
</clipPath>
</defs>
</svg>
