<svg width="14" height="14" viewBox="0 0 14 14" fill="none" xmlns="http://www.w3.org/2000/svg">
<g clip-path="url(#clip0_207_2208)">
<path d="M12.0909 0H1.90909C1.40277 0 0.917184 0.201136 0.55916 0.55916C0.201136 0.917184 0 1.40277 0 1.90909L0 12.0909C0 12.5972 0.201136 13.0828 0.55916 13.4408C0.917184 13.7989 1.40277 14 1.90909 14H12.0909C12.5972 14 13.0828 13.7989 13.4408 13.4408C13.7989 13.0828 14 12.5972 14 12.0909V1.90909C14 1.40277 13.7989 0.917184 13.4408 0.55916C13.0828 0.201136 12.5972 0 12.0909 0ZM4.77273 11.0791C4.77283 11.1179 4.76528 11.1564 4.75049 11.1923C4.73571 11.2282 4.71399 11.2608 4.68657 11.2883C4.65916 11.3158 4.62659 11.3376 4.59073 11.3525C4.55488 11.3673 4.51644 11.375 4.47761 11.375H3.22C3.18111 11.3751 3.14259 11.3675 3.10664 11.3527C3.07069 11.3379 3.03803 11.3161 3.01053 11.2886C2.98303 11.2611 2.96124 11.2284 2.9464 11.1925C2.93157 11.1565 2.92399 11.118 2.92409 11.0791V5.80682C2.92409 5.72834 2.95527 5.65307 3.01076 5.59758C3.06625 5.54208 3.14152 5.51091 3.22 5.51091H4.47761C4.55596 5.51112 4.63102 5.54239 4.68634 5.59786C4.74166 5.65333 4.77273 5.72848 4.77273 5.80682V11.0791ZM3.84841 5.01136C3.61242 5.01136 3.38173 4.94138 3.18551 4.81028C2.9893 4.67917 2.83636 4.49282 2.74605 4.27479C2.65574 4.05677 2.63211 3.81686 2.67815 3.5854C2.72419 3.35395 2.83783 3.14134 3.0047 2.97447C3.17157 2.80761 3.38418 2.69397 3.61563 2.64793C3.84709 2.60189 4.08699 2.62552 4.30502 2.71583C4.52305 2.80613 4.70939 2.95907 4.8405 3.15529C4.97161 3.3515 5.04159 3.58219 5.04159 3.81818C5.04159 4.13463 4.91588 4.43812 4.69212 4.66189C4.46835 4.88565 4.16486 5.01136 3.84841 5.01136ZM11.3464 11.0998C11.3465 11.1355 11.3395 11.171 11.3259 11.204C11.3122 11.2371 11.2922 11.2671 11.2669 11.2924C11.2416 11.3177 11.2116 11.3377 11.1785 11.3513C11.1455 11.365 11.1101 11.3719 11.0743 11.3718H9.72204C9.68629 11.3719 9.65087 11.365 9.61781 11.3513C9.58476 11.3377 9.55473 11.3177 9.52945 11.2924C9.50416 11.2671 9.48413 11.2371 9.47049 11.204C9.45686 11.171 9.44989 11.1355 9.45 11.0998V8.62989C9.45 8.2608 9.55818 7.01352 8.48511 7.01352C7.65386 7.01352 7.48443 7.86705 7.45102 8.25045V11.103C7.45103 11.1744 7.42292 11.243 7.37275 11.2939C7.32259 11.3448 7.25441 11.374 7.18295 11.375H5.87682C5.84113 11.375 5.80579 11.368 5.77283 11.3543C5.73987 11.3406 5.70993 11.3205 5.68473 11.2953C5.65954 11.27 5.63957 11.24 5.62599 11.207C5.6124 11.174 5.60546 11.1386 5.60557 11.103V5.78375C5.60546 5.74806 5.6124 5.7127 5.62599 5.6797C5.63957 5.6467 5.65954 5.6167 5.68473 5.59143C5.70993 5.56616 5.73987 5.54611 5.77283 5.53243C5.80579 5.51875 5.84113 5.5117 5.87682 5.5117H7.18295C7.25511 5.5117 7.3243 5.54037 7.37532 5.59138C7.42634 5.6424 7.455 5.7116 7.455 5.78375V6.24352C7.76364 5.77977 8.22102 5.42341 9.19705 5.42341C11.3591 5.42341 11.3448 7.44227 11.3448 8.55114L11.3464 11.0998Z" fill="white"/>
</g>
<defs>
<clipPath id="clip0_207_2208">
<rect width="14" height="14" fill="white"/>
</clipPath>
</defs>
</svg>
