<svg width="16" height="17" viewBox="0 0 16 17" fill="none" xmlns="http://www.w3.org/2000/svg">
<g clip-path="url(#clip0_207_2023)">
<path d="M12.7847 2.48206C11.5066 1.20391 9.80717 0.5 7.99961 0.5C6.19205 0.5 4.49261 1.20391 3.21448 2.48206C1.93633 3.76025 1.23242 5.45962 1.23242 7.26716C1.23242 10.9238 4.68986 13.9652 6.54733 15.5991C6.80545 15.8262 7.02836 16.0223 7.20595 16.1882C7.42845 16.396 7.71405 16.4999 7.99958 16.4999C8.28517 16.4999 8.5707 16.396 8.79323 16.1882C8.97083 16.0223 9.19373 15.8262 9.45186 15.5991C11.3093 13.9652 14.7668 10.9238 14.7668 7.26716C14.7667 5.45962 14.0629 3.76025 12.7847 2.48206ZM8.8328 14.8954C8.56902 15.1275 8.34123 15.3279 8.15342 15.5033C8.06714 15.5838 7.93202 15.5838 7.8457 15.5033C7.65792 15.3278 7.43011 15.1274 7.16633 14.8954C5.42008 13.3593 2.16961 10.5 2.16961 7.26719C2.16961 4.05256 4.78489 1.43728 7.99955 1.43728C11.2142 1.43728 13.8295 4.05256 13.8295 7.26719C13.8295 10.5 10.579 13.3593 8.8328 14.8954Z" fill="#30C36D"/>
<path d="M7.9998 4.0293C6.35539 4.0293 5.01758 5.36708 5.01758 7.01148C5.01758 8.65589 6.35539 9.99367 7.9998 9.99367C9.6442 9.99367 10.982 8.65589 10.982 7.01148C10.982 5.36708 9.6442 4.0293 7.9998 4.0293ZM7.9998 9.05639C6.8722 9.05639 5.95483 8.13902 5.95483 7.01145C5.95483 5.88389 6.8722 4.96652 7.9998 4.96652C9.12739 4.96652 10.0447 5.88389 10.0447 7.01145C10.0447 8.13902 9.12739 9.05639 7.9998 9.05639Z" fill="#30C36D"/>
</g>
<defs>
<clipPath id="clip0_207_2023">
<rect width="16" height="16" fill="white" transform="translate(0 0.5)"/>
</clipPath>
</defs>
</svg>
