<svg width="16" height="17" viewBox="0 0 16 17" fill="none" xmlns="http://www.w3.org/2000/svg">
<g clip-path="url(#clip0_207_1273)">
<path d="M8.00002 5.5909C6.39273 5.5909 5.09094 6.89273 5.09094 8.49998C5.09094 10.1072 6.39273 11.4091 8.00002 11.4091C9.6073 11.4091 10.9091 10.1073 10.9091 8.50002C10.9091 6.89277 9.60727 5.5909 8.00002 5.5909ZM14.5018 7.77272C14.1673 4.73999 11.76 2.33273 8.72728 1.99819V0.5H7.27272V1.99819C4.23999 2.33273 1.83273 4.73999 1.49819 7.77272H0V9.22728H1.49819C1.83273 12.26 4.24003 14.6673 7.27276 15.0018V16.5H8.72728V15.0018C11.76 14.6673 14.1673 12.26 14.5018 9.22728H16V7.77272H14.5018ZM8.00002 13.5909C5.18912 13.5909 2.90912 11.3109 2.90912 8.50002C2.90912 5.68912 5.18912 3.40912 8.00002 3.40912C10.8109 3.40912 13.0909 5.68908 13.0909 8.50002C13.0909 11.311 10.8109 13.5909 8.00002 13.5909Z" fill="#30C36D"/>
</g>
<defs>
<clipPath id="clip0_207_1273">
<rect width="16" height="16" fill="white" transform="translate(0 0.5)"/>
</clipPath>
</defs>
</svg>
