<svg width="16" height="16" viewBox="0 0 16 16" fill="none" xmlns="http://www.w3.org/2000/svg">
<path d="M10.5 2.50002C10.5656 2.49995 10.6307 2.51286 10.6913 2.538C10.752 2.56314 10.8071 2.60002 10.8535 2.64651C10.8999 2.69292 10.9368 2.74802 10.9619 2.80868C10.9871 2.86934 11 2.93435 11 3.00002C11 3.06568 10.9871 3.1307 10.9619 3.19135C10.9368 3.25201 10.8999 3.30711 10.8535 3.35352L6.20695 8.00002L10.8535 12.6465C11.0488 12.8419 11.0488 13.1583 10.8535 13.3535C10.6581 13.5488 10.3417 13.5489 10.1465 13.3535L5.14645 8.35352C5.09999 8.30711 5.06314 8.25201 5.03799 8.19135C5.01285 8.1307 4.9999 8.06568 4.9999 8.00002C4.9999 7.93435 5.01285 7.86934 5.03799 7.80868C5.06314 7.74802 5.09999 7.69292 5.14645 7.64652L10.1465 2.64651C10.1928 2.60002 10.2479 2.56314 10.3086 2.538C10.3692 2.51286 10.4343 2.49995 10.5 2.50002Z" fill="#F4F4F4"/>
</svg>
