<svg width="42" height="42" viewBox="0 0 42 42" fill="none" xmlns="http://www.w3.org/2000/svg">
<path d="M38.6627 19.1356C37.4907 17.4624 37.2548 15.2806 37.9035 13.3421C38.2539 12.3018 38.3625 11.1953 38.2209 10.1068C38.0794 9.01823 37.6915 7.9763 37.0867 7.06023C36.4819 6.14415 35.6761 5.37807 34.7307 4.82023C33.7853 4.2624 32.7252 3.92751 31.6309 3.84103V2.66169C31.6309 2.11624 31.9331 1.6224 32.4196 1.37916C32.5861 1.28697 32.7103 1.13384 32.7663 0.951939C32.8223 0.77004 32.8056 0.573529 32.7197 0.40369C32.6338 0.23385 32.4855 0.103902 32.3058 0.0411454C32.1261 -0.0216116 31.9291 -0.0122931 31.7562 0.0671435C31.275 0.308523 30.8705 0.679076 30.5881 1.13731C30.3056 1.59555 30.1562 2.12337 30.1567 2.66169V3.81891C30.1567 3.81891 30.1641 3.85577 30.1641 3.87051C26.5966 4.3275 23.7735 7.49698 23.8251 11.1529C23.8325 11.8458 23.9431 12.5092 24.1347 13.1431C24.6507 14.831 24.6507 16.6442 23.9431 18.2142C24.3927 18.9071 24.7907 19.6736 25.115 20.4918C25.6015 20.3297 26.0954 20.197 26.6039 20.1012V17.2044C26.6039 15.9882 27.599 14.9931 28.8152 14.9931C29.825 14.9931 30.6727 15.6786 30.938 16.6147H30.9454C31.712 16.6147 32.449 16.7769 33.1493 17.1012C34.7193 17.8236 35.8323 19.2682 36.1271 20.9635C36.2082 21.4132 36.0681 21.8628 35.7807 22.1871C37.5865 23.5139 39.0017 25.3418 39.8199 27.4647C40.1442 26.5212 40.3211 25.5114 40.3211 24.4573C40.3211 22.4746 39.702 20.6392 38.6406 19.1356H38.6627ZM23.7809 21.0446C22.4984 17.7572 20.007 15.5238 17.1398 15.5238C16.4616 15.5238 15.8056 15.6492 15.1791 15.8777C14.8253 16.0103 14.4568 16.084 14.0882 16.1356V16.1135C14.0293 15.5902 14.0661 14.7941 14.5968 13.9539C15.2897 12.863 16.41 12.3249 17.0218 12.1038C17.4051 11.9637 17.6041 11.5436 17.4641 11.1603C17.324 10.777 16.9039 10.578 16.5206 10.718C15.7393 11.0055 14.2799 11.6984 13.3585 13.1652C13.2995 13.261 13.2553 13.3494 13.2037 13.4379C12.9502 12.7177 12.4916 12.0875 11.8843 11.6247C11.3831 11.2425 10.7966 10.9877 10.1751 10.8825C9.55368 10.7772 8.91596 10.8245 8.31683 11.0203C8.29279 11.5827 8.3909 12.1438 8.60439 12.6647C8.81789 13.1857 9.14171 13.6542 9.55358 14.0381C9.96545 14.4219 10.4556 14.712 10.9903 14.8883C11.525 15.0646 12.0915 15.123 12.6509 15.0595C12.5919 15.4575 12.5919 15.8187 12.614 16.1283C12.2455 16.0767 11.8843 15.9956 11.5305 15.8703C10.904 15.6344 10.248 15.5165 9.56988 15.5165C5.3906 15.5165 2 20.2633 2 26.1084C2 31.9535 5.38323 36.7003 9.56988 36.7003C10.248 36.7003 10.904 36.575 11.5305 36.3465C12.6951 35.9117 14.0145 35.9117 15.1791 36.3465C15.8056 36.5824 16.4616 36.7003 17.1398 36.7003C17.4788 36.7003 17.8105 36.6561 18.1348 36.5972C17.442 35.0935 17.0439 33.4277 17.0439 31.6734C17.0439 26.9782 19.808 22.9316 23.7883 21.0299L23.7809 21.0446Z" fill="#30C36D"/>
<path d="M29.5611 21.3984C29.5611 21.3984 29.5685 21.3763 29.5685 21.3616V19.9611C29.9444 20.5655 30.4898 21.0667 31.1901 21.3837C32.362 21.9218 33.6593 21.8186 34.6986 21.2142C34.5934 20.6117 34.3431 20.0439 33.9694 19.5598C33.5957 19.0756 33.1098 18.6897 32.5537 18.4353C32.0888 18.2205 31.585 18.1025 31.0731 18.0886C30.5611 18.0747 30.0517 18.1651 29.5758 18.3543V17.2044C29.5758 16.799 29.2441 16.4673 28.8387 16.4673C28.4333 16.4673 28.1017 16.799 28.1017 17.2044V21.3616C28.1017 21.3616 28.1017 21.3837 28.109 21.3984C22.7504 21.7743 18.5195 26.2263 18.5195 31.6808C18.5195 37.1352 23.1411 42 28.8387 42C34.5364 42 39.158 37.3785 39.158 31.6808C39.158 25.9831 34.9271 21.7743 29.5685 21.3984H29.5611ZM29.5685 39.4054C29.1631 39.4054 28.8314 39.0738 28.8314 38.6684C28.8314 38.263 29.1631 37.9313 29.5685 37.9313C29.9739 37.9313 30.3055 38.263 30.3055 38.6684C30.3055 39.0738 29.9739 39.4054 29.5685 39.4054ZM33.1728 38.6684C32.7674 38.6684 32.4357 38.3367 32.4357 37.9313C32.4357 37.5259 32.7674 37.1942 33.1728 37.1942C33.5782 37.1942 33.9099 37.5259 33.9099 37.9313C33.9099 38.3367 33.5782 38.6684 33.1728 38.6684ZM34.1753 35.4841C33.7699 35.4841 33.4382 35.1525 33.4382 34.7471C33.4382 34.3417 33.7699 34.01 34.1753 34.01C34.5806 34.01 34.9123 34.3417 34.9123 34.7471C34.9123 35.1525 34.5806 35.4841 34.1753 35.4841ZM34.9123 29.2263C34.5069 29.2263 34.1753 28.8946 34.1753 28.4892C34.1753 28.0838 34.5069 27.7521 34.9123 27.7521C35.3177 27.7521 35.6494 28.0838 35.6494 28.4892C35.6494 28.8946 35.3177 29.2263 34.9123 29.2263ZM37.1383 32.2115C37.1383 32.6169 36.8067 32.9486 36.4013 32.9486C35.9959 32.9486 35.6642 32.6169 35.6642 32.2115C35.6642 31.8061 35.9959 31.4744 36.4013 31.4744C36.8067 31.4744 37.1383 31.8061 37.1383 32.2115Z" fill="#30C36D"/>
</svg>
