<svg width="42" height="42" viewBox="0 0 42 42" fill="none" xmlns="http://www.w3.org/2000/svg">
<path fill-rule="evenodd" clip-rule="evenodd" d="M33.5039 2.60351V7.48789H30.0462V2.60351H28.1298C27.9604 2.60081 27.7988 2.53161 27.68 2.41085C27.5611 2.29009 27.4945 2.12744 27.4945 1.958C27.4945 1.78857 27.5611 1.62592 27.68 1.50516C27.7988 1.3844 27.9604 1.3152 28.1298 1.3125H35.4203C35.5343 1.31245 35.6464 1.34265 35.745 1.40002C35.8436 1.45738 35.9252 1.53987 35.9815 1.63907L37.8927 4.5273C37.9848 4.66975 38.017 4.84277 37.9823 5.00882C37.9476 5.17486 37.8488 5.3205 37.7073 5.41414C37.5659 5.50777 37.3932 5.54183 37.2268 5.50892C37.0604 5.47601 36.9137 5.37878 36.8186 5.23835L35.0751 2.60351H33.5039ZM4.03954 33.3108C3.85753 33.2829 3.69047 33.1937 3.56596 33.0581C3.44144 32.9224 3.36691 32.7483 3.35466 32.5646L1.77269 9.22622C1.76065 9.05987 1.78312 8.89284 1.83868 8.73558C1.89424 8.57833 1.9817 8.43426 2.09557 8.3124C2.20944 8.19054 2.34726 8.09353 2.5004 8.02745C2.65353 7.96137 2.81866 7.92765 2.98544 7.9284H13.1311C13.8382 7.9284 14.3904 8.51804 14.344 9.22368L12.8114 32.5629C12.7995 32.7469 12.7252 32.9214 12.6006 33.0574C12.476 33.1934 12.3087 33.2828 12.1264 33.3108H4.03954ZM4.29933 11.0051H11.8171C11.9019 11.0051 11.9858 10.9885 12.0641 10.956C12.1424 10.9236 12.2136 10.876 12.2735 10.8161C12.3335 10.7561 12.381 10.685 12.4135 10.6067C12.4459 10.5284 12.4626 10.4444 12.4626 10.3596C12.4626 10.2749 12.4459 10.1909 12.4135 10.1126C12.381 10.0343 12.3335 9.96315 12.2735 9.9032C12.2136 9.84326 12.1424 9.79572 12.0641 9.76328C11.9858 9.73084 11.9019 9.71414 11.8171 9.71414H4.29933C4.21456 9.71414 4.13063 9.73084 4.05231 9.76328C3.97399 9.79572 3.90283 9.84326 3.84289 9.9032C3.78295 9.96315 3.73541 10.0343 3.70297 10.1126C3.67053 10.1909 3.65383 10.2749 3.65383 10.3596C3.65383 10.4444 3.67053 10.5284 3.70297 10.6067C3.73541 10.685 3.78295 10.7561 3.84289 10.8161C3.90283 10.876 3.97399 10.9236 4.05231 10.956C4.13063 10.9885 4.21456 11.0051 4.29933 11.0051ZM8.05825 14.1154C6.74214 14.1154 5.67524 17.0296 5.67524 20.6243C5.67524 24.2191 6.74214 27.1331 8.05825 27.1331C9.37436 27.1331 10.4413 24.219 10.4413 20.6243C10.4413 17.0296 9.37436 14.1154 8.05825 14.1154ZM16.6237 22.3238H22.9559C23.5942 22.3238 24.1164 22.846 24.1164 23.4843V24.9969C24.1164 25.6352 23.5942 26.1574 22.9559 26.1574H16.6237C15.9854 26.1574 15.4632 25.6352 15.4632 24.9969V23.4843C15.4632 22.846 15.9854 22.3238 16.6237 22.3238ZM19.749 15.7832C20.7309 15.7832 21.5325 16.4779 21.5325 17.485V21.0328H18.0471V17.485C18.0471 16.5478 18.8116 15.7832 19.749 15.7832ZM23.3376 27.4183C24.2586 28.0859 24.9261 28.817 24.9261 30.2119V38.636C24.9261 39.7643 24.0029 40.6875 22.8747 40.6875H16.705C15.5767 40.6875 14.6536 39.7643 14.6536 38.636V30.2119C14.6536 28.817 15.3211 28.0859 16.242 27.4183C16.3683 27.4383 16.4959 27.4483 16.6237 27.4483H22.9559C23.0856 27.4483 23.2132 27.438 23.3376 27.4183ZM24.9402 15.9351C24.1435 15.9351 23.478 16.4859 23.344 17.207H37.368C37.7362 17.207 38.0347 17.496 38.0347 17.8525C38.0347 18.2091 37.7362 18.498 37.368 18.498H23.3194V21.0601C24.4969 21.2372 25.4073 22.2595 25.4073 23.4844V24.997C25.4073 25.7021 25.1055 26.3402 24.6247 26.7885C25.6795 27.6966 26.217 28.7728 26.217 30.2119V35.0359H40.2307V17.4745C40.2307 16.6266 39.5026 15.9351 38.6099 15.9351H24.9402ZM40.2307 36.3267V36.9333C40.2307 37.442 39.7938 37.857 39.2582 37.857H26.2171V36.3267H40.2307ZM32.0704 22.4583C32.3895 22.9482 32.7894 23.6958 33.1796 24.4407C33.7486 25.5269 34.6707 27.0113 34.6043 28.2814C34.5105 30.0734 33.1681 31.4372 31.6061 31.3276C30.0441 31.218 28.8539 29.6764 28.9477 27.8843C29.0127 26.6419 29.967 25.4537 30.6196 24.4917C31.1286 23.7412 31.665 22.9453 32.0704 22.4583ZM26.3774 12.503H37.1727C37.2796 12.5032 37.3821 12.5457 37.4578 12.6213C37.5334 12.6969 37.5759 12.7995 37.5761 12.9064V14.6441H25.974V12.9064C25.9742 12.7995 26.0167 12.6969 26.0923 12.6213C26.1679 12.5457 26.2705 12.5032 26.3774 12.503ZM27.7282 8.7789H35.822C36.0886 8.7789 36.306 8.99637 36.306 9.26305V11.2121H27.244V9.26305C27.2443 9.13472 27.2954 9.01171 27.3861 8.92097C27.4769 8.83023 27.5999 8.77914 27.7282 8.7789ZM11.1919 34.6018V35.77C11.1919 36.0266 10.982 36.2365 10.7255 36.2365H5.39101C5.13441 36.2365 4.92449 36.0266 4.92449 35.77V34.6018H11.1919Z" fill="#30C36D"/>
</svg>
