<svg width="18" height="18" viewBox="0 0 18 18" fill="none" xmlns="http://www.w3.org/2000/svg">
<g clip-path="url(#clip0_207_1994)">
<path d="M17.9531 6.55308C17.8955 6.37471 17.7867 6.21722 17.6403 6.10025C17.4938 5.98328 17.3162 5.912 17.1295 5.89529L11.9342 5.42352L9.87985 0.615077C9.72832 0.262697 9.38336 0.034668 9.00008 0.034668C8.6168 0.034668 8.2718 0.262732 8.12034 0.615956L6.06597 5.42355L0.86985 5.89529C0.683382 5.91237 0.506027 5.98381 0.359775 6.10074C0.213523 6.21766 0.104806 6.37495 0.0471024 6.55308C-0.0714123 6.91759 0.0380319 7.31736 0.326848 7.56937L4.2539 11.0134L3.09589 16.1143C3.01117 16.4894 3.15672 16.8771 3.46793 17.102C3.63517 17.2229 3.83089 17.2844 4.02823 17.2844C4.19839 17.2844 4.36714 17.2385 4.51867 17.1479L9.00008 14.4695L13.4799 17.1479C13.8077 17.3451 14.2209 17.3271 14.5314 17.102C14.6834 16.992 14.7997 16.8397 14.8659 16.6641C14.932 16.4885 14.9451 16.2973 14.9035 16.1143L13.7455 11.0134L17.6725 7.57007C17.8138 7.44669 17.9157 7.28453 17.9655 7.10372C18.0154 6.92292 18.0111 6.73144 17.9531 6.55308Z" fill="#FFC107"/>
</g>
<defs>
<clipPath id="clip0_207_1994">
<rect width="18" height="18" fill="white"/>
</clipPath>
</defs>
</svg>
