<svg width="24" height="24" viewBox="0 0 24 24" fill="none" xmlns="http://www.w3.org/2000/svg">
<g clip-path="url(#clip0_207_1256)">
<path d="M23.9958 8H0V9C0 9.53043 0.210714 10.0391 0.585786 10.4142C0.960859 10.7893 1.46957 11 2 11H5C5.53043 11 6.03914 10.7893 6.41421 10.4142C6.78929 10.0391 7 9.53043 7 9C7 9.53043 7.21071 10.0391 7.58579 10.4142C7.96086 10.7893 8.46957 11 9 11H15C15.5304 11 16.0391 10.7893 16.4142 10.4142C16.7893 10.0391 17 9.53043 17 9C17 9.53043 17.2107 10.0391 17.5858 10.4142C17.9609 10.7893 18.4696 11 19 11H22C22.5304 11 23.0391 10.7893 23.4142 10.4142C23.7893 10.0391 24 9.53043 24 9V8H23.9958ZM23.7542 7L21.9615 0.725C21.9018 0.516107 21.7756 0.332356 21.6021 0.201547C21.4286 0.0707382 21.2173 -1.21163e-05 21 1.55638e-09H16.4198L17.8197 7H23.7542ZM7.58025 1.55638e-09H3C2.78273 -1.21163e-05 2.57137 0.0707382 2.39789 0.201547C2.22441 0.332356 2.09825 0.516107 2.0385 0.725L0.24575 7H6.18025L7.58025 1.55638e-09ZM14.3802 1.55638e-09H9.61975L8.21975 7H15.7802L14.3802 1.55638e-09ZM19 12C18.2616 12.0006 17.5492 11.7278 17 11.2343C16.4508 11.7278 15.7384 12.0006 15 12H9C8.26162 12.0006 7.54917 11.7278 7 11.2343C6.45083 11.7278 5.73838 12.0006 5 12H2C1.65911 11.9993 1.32087 11.9401 1 11.825V23C1 23.2652 1.10536 23.5196 1.29289 23.7071C1.48043 23.8946 1.73478 24 2 24H4V15C4 14.7348 4.10536 14.4804 4.29289 14.2929C4.48043 14.1054 4.73478 14 5 14H10C10.2652 14 10.5196 14.1054 10.7071 14.2929C10.8946 14.4804 11 14.7348 11 15V24H22C22.2652 24 22.5196 23.8946 22.7071 23.7071C22.8946 23.5196 23 23.2652 23 23V11.825C22.6791 11.9401 22.3409 11.9993 22 12H19ZM20 18C20 18.2652 19.8946 18.5196 19.7071 18.7071C19.5196 18.8946 19.2652 19 19 19H14C13.7348 19 13.4804 18.8946 13.2929 18.7071C13.1054 18.5196 13 18.2652 13 18V15C13 14.7348 13.1054 14.4804 13.2929 14.2929C13.4804 14.1054 13.7348 14 14 14H19C19.2652 14 19.5196 14.1054 19.7071 14.2929C19.8946 14.4804 20 14.7348 20 15V18Z" fill="#30C36D"/>
</g>
<defs>
<clipPath id="clip0_207_1256">
<rect width="24" height="24" fill="white"/>
</clipPath>
</defs>
</svg>
