<svg width="34" height="34" viewBox="0 0 34 34" fill="none" xmlns="http://www.w3.org/2000/svg">
<g clip-path="url(#clip0_207_1949)">
<path d="M28.2053 18.5617H20.6435C20.2274 17.3374 19.0675 16.4537 17.7042 16.4537C16.341 16.4537 15.1811 17.3374 14.765 18.5617H9.23864C8.02705 18.5617 7.04139 17.5761 7.04139 16.3645C7.04139 15.154 8.02626 14.1691 9.23678 14.1691H27.9695C28.2756 14.1686 28.5783 14.1053 28.8589 13.983C29.1394 13.8606 29.3919 13.682 29.6005 13.458C31.6075 11.2984 34 8.25649 34 6.02902C34 2.70459 31.2947 0 27.9695 0C24.6443 0 21.939 2.70459 21.939 6.02902C21.939 7.84371 23.5268 10.1987 25.2004 12.177H9.23678C6.92777 12.177 5.0492 14.0555 5.0492 16.3646C5.0492 18.6746 6.92856 20.5539 9.23864 20.5539H14.765C15.1811 21.7783 16.341 22.662 17.7042 22.662C19.0675 22.662 20.2274 21.7783 20.6435 20.5539H28.2053C30.302 20.5539 32.0078 22.2598 32.0078 24.3565C32.0078 26.4532 30.302 28.159 28.2053 28.159H24.9039C24.4878 26.9346 23.3279 26.0509 21.9647 26.0509C20.6014 26.0509 19.4415 26.9346 19.0254 28.159H9.5886C9.12787 25.9637 7.17666 24.3101 4.846 24.3101C2.17394 24.3101 0 26.4835 0 29.1551C0 31.8266 2.17394 34 4.84606 34C7.17672 34 9.12787 32.3464 9.58866 30.1512H19.0254C19.4415 31.3755 20.6014 32.2592 21.9647 32.2592C23.3279 32.2592 24.4878 31.3755 24.9039 30.1512H28.2053C31.4005 30.1512 34 27.5517 34 24.3565C34 21.1613 31.4005 18.5617 28.2053 18.5617ZM27.9695 1.99219C30.1962 1.99219 32.0078 3.80315 32.0078 6.02902C32.0078 7.20853 30.5262 9.53547 28.1412 12.1019C28.0835 12.164 28.016 12.177 27.9695 12.177C27.923 12.177 27.8555 12.164 27.7978 12.1019C25.4128 9.53554 23.9312 7.2086 23.9312 6.02909C23.9312 3.80315 25.7428 1.99219 27.9695 1.99219ZM17.7042 20.6698C17.0911 20.6698 16.5923 20.171 16.5923 19.5578C16.5923 18.9447 17.0911 18.4459 17.7042 18.4459C18.3174 18.4459 18.8162 18.9447 18.8162 19.5578C18.8162 20.171 18.3174 20.6698 17.7042 20.6698ZM4.84606 32.0078C3.27243 32.0078 1.99219 30.7281 1.99219 29.1551C1.99219 27.582 3.27243 26.3023 4.84606 26.3023C6.41969 26.3023 7.69994 27.582 7.69994 29.1551C7.69994 30.7281 6.41969 32.0078 4.84606 32.0078ZM21.9647 30.267C21.3515 30.267 20.8527 29.7682 20.8527 29.1551C20.8527 28.5419 21.3515 28.0431 21.9647 28.0431C22.5778 28.0431 23.0766 28.5419 23.0766 29.1551C23.0766 29.7682 22.5779 30.267 21.9647 30.267Z" fill="#19232F"/>
<path d="M28.9657 6.0885C28.9415 5.54882 28.528 5.09241 27.9696 5.09241C27.4486 5.09241 26.9494 5.55054 26.9735 6.0885C26.9977 6.62818 27.4112 7.08459 27.9696 7.08459C28.4906 7.08459 28.9898 6.62646 28.9657 6.0885Z" fill="#19232F"/>
</g>
<defs>
<clipPath id="clip0_207_1949">
<rect width="34" height="34" fill="white"/>
</clipPath>
</defs>
</svg>
