<svg width="32" height="32" viewBox="0 0 32 32" fill="none" xmlns="http://www.w3.org/2000/svg">
<g clip-path="url(#clip0_207_1933)">
<path d="M28.25 23.25C27.905 23.25 27.625 23.53 27.625 23.875C27.625 24.22 27.905 24.5 28.25 24.5C28.595 24.5 28.875 24.22 28.875 23.875C28.875 23.53 28.595 23.25 28.25 23.25Z" fill="#19232F"/>
<path d="M28.25 20.021V1.25C28.25 0.743563 27.6695 0.443562 27.254 0.747C27.2471 0.752062 26.5558 1.25 25.75 1.25C24.9442 1.25 24.2529 0.752062 24.2482 0.748688C24.2072 0.718125 23.2286 0 22 0C20.7714 0 19.7928 0.718125 19.754 0.747C19.7471 0.752062 19.0558 1.25 18.25 1.25C17.4442 1.25 16.7529 0.752062 16.7482 0.748688C16.7072 0.718125 15.7286 0 14.5 0C13.2714 0 12.2928 0.718125 12.254 0.747C12.2471 0.752062 11.5558 1.25 10.75 1.25C9.94419 1.25 9.25288 0.752062 9.24825 0.748688C8.83331 0.439688 8.25 0.743062 8.25 1.25V14.125H4.375C3.34113 14.125 2.5 14.9661 2.5 16V17.1024L0.066 21.9705C0.0233496 22.0576 0.000794606 22.1531 0 22.25L0 31.375C0 31.7201 0.279813 32 0.625 32H26.375C26.4711 31.9999 26.5659 31.9776 26.6519 31.9347C29.6723 31.4962 32 28.89 32 25.75C32 23.2552 30.5103 21.0074 28.25 20.021ZM3.75 16C3.75 15.6554 4.03038 15.375 4.375 15.375H12.625C12.9696 15.375 13.25 15.6554 13.25 16V16.625H3.75V16ZM10.75 30.75H1.25V22.875H10.75V30.75ZM1.63625 21.625L3.51125 17.875H12.8638L10.9888 21.625H1.63625ZM15.75 30.75H12V22.3976L13.875 18.6476L15.75 22.3976V30.75ZM15.75 16.875V19.6024L14.5 17.1024V16C14.5 14.9661 13.6589 14.125 12.625 14.125H9.5V2.26763C9.85606 2.39713 10.2851 2.5 10.75 2.5C11.9786 2.5 12.9572 1.78188 12.996 1.753C13.0029 1.74794 13.6942 1.25 14.5 1.25C15.3058 1.25 15.9971 1.74794 16.0018 1.75131C16.0428 1.78188 17.0214 2.5 18.25 2.5C19.4786 2.5 20.4572 1.78188 20.496 1.753C20.5029 1.74794 21.1942 1.25 22 1.25C22.8058 1.25 23.4971 1.74794 23.5018 1.75131C23.5428 1.78188 24.5214 2.5 25.75 2.5C26.2149 2.5 26.6439 2.39719 27 2.26769V19.6262C26.5886 19.5424 26.1698 19.5001 25.75 19.5C25.3268 19.5 24.9089 19.5429 24.5 19.626V16.875C24.5 15.2602 24.2154 13.703 23.6769 12.372C23.0549 10.8333 22.7069 9.19681 22.6384 7.49931C22.9773 7.49213 23.25 7.21569 23.25 6.875V5.625C23.25 4.59113 22.4089 3.75 21.375 3.75H18.875C17.8411 3.75 17 4.59113 17 5.625V6.875C17 7.21569 17.2727 7.49213 17.6116 7.49931C17.5431 9.19675 17.1951 10.8333 16.5731 12.3719C16.0346 13.703 15.75 15.2601 15.75 16.875ZM18.8623 7.5H21.3878C21.4572 9.35894 21.8358 11.1528 22.5182 12.8406C22.928 13.8536 23.1718 15.0217 23.2337 16.25H17.0164C17.0782 15.0217 17.3221 13.8536 17.7319 12.8405C18.4142 11.1528 18.7929 9.35894 18.8623 7.5ZM18.25 6.25V5.625C18.25 5.28038 18.5304 5 18.875 5H21.375C21.7196 5 22 5.28038 22 5.625V6.25H18.25ZM23.25 17.5V20.0208C20.9898 21.0071 19.5 23.2553 19.5 25.75H17V17.5H23.25ZM17 30.75V27H19.6254C19.9356 28.5366 20.8002 29.8538 21.9942 30.75H17ZM25.75 30.75C23.1968 30.75 21.0604 28.8397 20.7806 26.3068C20.7603 26.1219 20.7501 25.936 20.75 25.75C20.75 23.0177 22.9617 20.75 25.75 20.75C26.3215 20.75 26.8815 20.8454 27.4143 21.0337L27.4146 21.0338C29.4096 21.7376 30.75 23.6329 30.75 25.75C30.75 28.507 28.507 30.75 25.75 30.75Z" fill="#19232F"/>
<path d="M28.9079 25.3243C28.5636 25.3035 28.2666 25.5644 28.245 25.9089C28.1625 27.2217 27.0666 28.25 25.75 28.25C25.4048 28.25 25.125 28.5298 25.125 28.875C25.125 29.2202 25.4048 29.5 25.75 29.5C27.7249 29.5 29.3687 27.957 29.4925 25.9873C29.5142 25.6428 29.2524 25.346 28.9079 25.3243ZM13.875 3.75H11.375C11.0298 3.75 10.75 4.02981 10.75 4.375C10.75 4.72019 11.0298 5 11.375 5H13.875C14.2202 5 14.5 4.72019 14.5 4.375C14.5 4.02981 14.2202 3.75 13.875 3.75ZM13.875 6.25H11.375C11.0298 6.25 10.75 6.52981 10.75 6.875C10.75 7.22019 11.0298 7.5 11.375 7.5H13.875C14.2202 7.5 14.5 7.22019 14.5 6.875C14.5 6.52981 14.2202 6.25 13.875 6.25Z" fill="#19232F"/>
</g>
<defs>
<clipPath id="clip0_207_1933">
<rect width="32" height="32" fill="white"/>
</clipPath>
</defs>
</svg>
