<svg width="14" height="14" viewBox="0 0 14 14" fill="none" xmlns="http://www.w3.org/2000/svg">
<g clip-path="url(#clip0_207_2203)">
<path d="M7.469 6.76111L10.6195 11.2675H9.32654L6.75565 7.59027V7.59004L6.37821 7.05024L3.375 2.75439H4.66797L7.09156 6.22131L7.469 6.76111Z" fill="white"/>
<path d="M12.4873 0H1.51273C0.677294 0 0 0.677294 0 1.51273V12.4873C0 13.3227 0.677294 14 1.51273 14H12.4873C13.3227 14 14 13.3227 14 12.4873V1.51273C14 0.677294 13.3227 0 12.4873 0ZM8.92965 11.8723L6.32807 8.086L3.07087 11.8723H2.22905L5.95428 7.5422L2.22905 2.12054H5.07035L7.53387 5.70588L10.6182 2.12054H11.46L7.90777 6.2498H7.90755L11.771 11.8723H8.92965Z" fill="white"/>
</g>
<defs>
<clipPath id="clip0_207_2203">
<rect width="14" height="14" fill="white"/>
</clipPath>
</defs>
</svg>
