<svg width="42" height="42" viewBox="0 0 42 42" fill="none" xmlns="http://www.w3.org/2000/svg">
<path d="M41.3438 38.7188V41.3438H0.65625V38.7188H39.375H41.3438Z" fill="#3E5857"/>
<path d="M16.4062 17.7188H25.5938V38.7188H16.4062V17.7188Z" fill="#99EFFF"/>
<path d="M16.4062 17.7188V38.7188H2.625V12.4688H39.375V38.7188H25.5938V17.7188H16.4062Z" fill="#FFF8D4"/>
<path d="M27.5625 31.5V35.4375L36.75 26.25V22.3125L27.5625 31.5Z" fill="#69E5FD"/>
<path d="M36.75 18.375L27.5625 27.5625V31.5L36.75 22.3125V18.375Z" fill="#D2F7FF"/>
<path d="M27.5625 17.7188V27.5625L36.75 18.375V17.7188H27.5625Z" fill="#69E5FD"/>
<path d="M27.5625 35.4375V36.0938H36.75V26.25L27.5625 35.4375Z" fill="#99EFFF"/>
<path d="M5.25 31.5V35.4375L14.4375 26.25V22.3125L5.25 31.5Z" fill="#69E5FD"/>
<path d="M14.4375 18.375L5.25 27.5625V31.5L14.4375 22.3125V18.375Z" fill="#D2F7FF"/>
<path d="M5.25 17.7188V27.5625L14.4375 18.375V17.7188H5.25Z" fill="#69E5FD"/>
<path d="M5.25 35.4375V36.0938H14.4375V26.25L5.25 35.4375Z" fill="#99EFFF"/>
<path d="M36.75 17.0625H27.5625C27.3885 17.0625 27.2215 17.1316 27.0985 17.2547C26.9754 17.3778 26.9062 17.5447 26.9062 17.7188V36.0938C26.9062 36.2678 26.9754 36.4347 27.0985 36.5578C27.2215 36.6809 27.3885 36.75 27.5625 36.75H36.75C36.924 36.75 37.091 36.6809 37.214 36.5578C37.3371 36.4347 37.4062 36.2678 37.4062 36.0938V17.7188C37.4062 17.5447 37.3371 17.3778 37.214 17.2547C37.091 17.1316 36.924 17.0625 36.75 17.0625ZM36.75 36.0938H27.5625V17.7188H36.75V36.0938ZM14.4375 17.0625H5.25C5.07595 17.0625 4.90903 17.1316 4.78596 17.2547C4.66289 17.3778 4.59375 17.5447 4.59375 17.7188V36.0938C4.59375 36.2678 4.66289 36.4347 4.78596 36.5578C4.90903 36.6809 5.07595 36.75 5.25 36.75H14.4375C14.6115 36.75 14.7785 36.6809 14.9015 36.5578C15.0246 36.4347 15.0938 36.2678 15.0938 36.0938V17.7188C15.0938 17.5447 15.0246 17.3778 14.9015 17.2547C14.7785 17.1316 14.6115 17.0625 14.4375 17.0625ZM14.4375 36.0938H5.25V17.7188H14.4375V36.0938ZM25.5938 17.0625H16.4062C16.2322 17.0625 16.0653 17.1316 15.9422 17.2547C15.8191 17.3778 15.75 17.5447 15.75 17.7188V38.7188H16.4062V17.7188H25.5938V38.7188H26.25V17.7188C26.25 17.5447 26.1809 17.3778 26.0578 17.2547C25.9347 17.1316 25.7678 17.0625 25.5938 17.0625Z" fill="#516667"/>
<path d="M16.4062 35.4375L25.5938 26.25V21L16.4062 30.1875V35.4375Z" fill="#D2F7FF"/>
<path d="M16.4062 38.7188L25.5938 29.5312V26.25L16.4062 35.4375V38.7188ZM16.4062 30.1875L25.5938 21V17.7188L16.4062 26.9062V30.1875Z" fill="#69E5FD"/>
<path d="M16.4062 26.9062L25.5938 17.7188H16.4062V26.9062Z" fill="#99EFFF"/>
<path d="M21.6562 26.9062H25.5938V28.875H21.6562V26.9062Z" fill="#A1C203"/>
<path d="M23.7615 24.8464C23.7455 24.8253 23.7249 24.8082 23.7012 24.7965C23.6775 24.7847 23.6514 24.7786 23.625 24.7786C23.5986 24.7786 23.5725 24.7847 23.5488 24.7965C23.5251 24.8082 23.5045 24.8253 23.4885 24.8464L22.176 26.8151C22.1581 26.8422 22.1485 26.8739 22.1484 26.9064H22.5094L23.625 25.2336L24.7406 26.9064H25.1022C25.1022 26.8739 25.0926 26.8422 25.0747 26.8151L23.7615 24.8464Z" fill="#516667"/>
<path d="M21.6562 27.5625V28.875H24.9375V29.5312H21V27.5625H21.6562Z" fill="#30CFFF"/>
<path d="M39.375 40.0312H2.625C2.26256 40.0312 1.96875 40.3251 1.96875 40.6875C1.96875 41.0499 2.26256 41.3438 2.625 41.3438H39.375C39.7374 41.3438 40.0312 41.0499 40.0312 40.6875C40.0312 40.3251 39.7374 40.0312 39.375 40.0312Z" fill="#22333B"/>
<path d="M41.3438 34.125C41.3438 33.3572 40.3462 32.7469 40.11 32.0578C39.8672 31.3425 40.2937 30.286 39.8409 29.6888C39.3881 29.0916 38.2069 29.1506 37.5703 28.711C36.9469 28.2778 36.6516 27.1819 35.9034 26.9522C35.1816 26.7225 34.2694 27.4378 33.4688 27.4378C32.6681 27.4378 31.7559 26.7225 31.0341 26.9522C30.2859 27.1819 29.9906 28.2778 29.3672 28.711C28.9388 28.9368 28.4785 29.0961 28.0022 29.1835C27.6547 29.2526 27.3378 29.4294 27.0966 29.6888C26.6438 30.286 27.0703 31.3425 26.8275 32.0578C26.5913 32.7469 25.5938 33.3572 25.5938 34.125C25.5938 34.8928 26.5913 35.5031 26.8275 36.1922C27.0441 36.8353 26.7225 37.7606 26.985 38.371C27.0158 38.4379 27.0532 38.5017 27.0966 38.5613C27.5559 39.165 28.7306 39.0994 29.3672 39.5391C29.9906 39.9722 30.2859 41.0681 31.0341 41.2978C31.7559 41.5275 32.6681 40.8122 33.4688 40.8122C34.2694 40.8122 35.1816 41.5275 35.9034 41.2978C36.6516 41.0681 36.9469 39.9722 37.5703 39.5391C38.1937 39.106 39.3816 39.165 39.8409 38.5613C40.3003 37.9575 39.8672 36.9075 40.11 36.1922C40.3462 35.5031 41.3438 34.8928 41.3438 34.125Z" fill="#DA243D"/>
<path d="M35.4374 38.7188C35.048 38.7188 34.6673 38.6033 34.3436 38.387C34.0198 38.1706 33.7675 37.8631 33.6185 37.5034C33.4695 37.1437 33.4305 36.7478 33.5064 36.3659C33.5824 35.984 33.7699 35.6332 34.0452 35.3579C34.3206 35.0826 34.6714 34.895 35.0533 34.8191C35.4352 34.7431 35.831 34.7821 36.1908 34.9311C36.5505 35.0801 36.858 35.3325 37.0743 35.6562C37.2906 35.98 37.4061 36.3606 37.4061 36.75C37.4061 37.2721 37.1987 37.7729 36.8295 38.1421C36.4603 38.5113 35.9595 38.7188 35.4374 38.7188ZM35.4374 36.0938C35.3076 36.0938 35.1807 36.1322 35.0728 36.2043C34.9648 36.2765 34.8807 36.379 34.8311 36.4989C34.7814 36.6188 34.7684 36.7507 34.7937 36.878C34.819 37.0053 34.8815 37.1223 34.9733 37.214C35.0651 37.3058 35.182 37.3683 35.3093 37.3936C35.4366 37.419 35.5686 37.406 35.6885 37.3563C35.8084 37.3066 35.9109 37.2225 35.983 37.1146C36.0551 37.0067 36.0936 36.8798 36.0936 36.75C36.0936 36.576 36.0245 36.409 35.9014 36.286C35.7783 36.1629 35.6114 36.0938 35.4374 36.0938ZM31.4999 33.4688C31.1105 33.4688 30.7298 33.3533 30.4061 33.137C30.0823 32.9206 29.83 32.6131 29.681 32.2534C29.532 31.8937 29.493 31.4978 29.5689 31.1159C29.6449 30.734 29.8324 30.3832 30.1077 30.1079C30.3831 29.8326 30.7339 29.645 31.1158 29.5691C31.4977 29.4931 31.8935 29.5321 32.2533 29.6811C32.613 29.8301 32.9205 30.0825 33.1368 30.4062C33.3531 30.73 33.4686 31.1106 33.4686 31.5C33.4686 32.0221 33.2612 32.5229 32.892 32.8921C32.5228 33.2613 32.022 33.4688 31.4999 33.4688ZM31.4999 30.8438C31.3701 30.8438 31.2432 30.8822 31.1353 30.9543C31.0273 31.0265 30.9432 31.129 30.8936 31.2489C30.8439 31.3688 30.8309 31.5007 30.8562 31.628C30.8815 31.7553 30.944 31.8723 31.0358 31.964C31.1276 32.0558 31.2445 32.1183 31.3718 32.1436C31.4991 32.169 31.6311 32.156 31.751 32.1063C31.8709 32.0566 31.9734 31.9725 32.0455 31.8646C32.1176 31.7567 32.1561 31.6298 32.1561 31.5C32.1561 31.326 32.087 31.159 31.9639 31.036C31.8408 30.9129 31.6739 30.8438 31.4999 30.8438ZM29.5311 38.7188C29.4013 38.7187 29.2745 38.6802 29.1666 38.6081C29.0587 38.536 28.9746 38.4335 28.9249 38.3136C28.8753 38.1937 28.8623 38.0618 28.8876 37.9345C28.9129 37.8072 28.9754 37.6903 29.0671 37.5985L36.9421 29.7235C37.0659 29.604 37.2317 29.5378 37.4037 29.5393C37.5758 29.5408 37.7404 29.6099 37.8621 29.7315C37.9838 29.8532 38.0528 30.0178 38.0543 30.1899C38.0558 30.3619 37.9896 30.5277 37.8701 30.6515L29.9951 38.5265C29.872 38.6495 29.7051 38.7187 29.5311 38.7188Z" fill="white"/>
<path d="M32.1562 12.4688H2.625V17.0244C2.7331 17.0464 2.84287 17.0591 2.95312 17.0625C3.6046 17.0158 4.21133 16.7139 4.64143 16.2224C5.07153 15.7308 5.29023 15.0894 5.25 14.4375C5.25 15.1337 5.52656 15.8014 6.01884 16.2937C6.51113 16.7859 7.17881 17.0625 7.875 17.0625C8.57119 17.0625 9.23887 16.7859 9.73116 16.2937C10.2234 15.8014 10.5 15.1337 10.5 14.4375C10.5 15.1337 10.7766 15.8014 11.2688 16.2937C11.7611 16.7859 12.4288 17.0625 13.125 17.0625C13.8212 17.0625 14.4889 16.7859 14.9812 16.2937C15.4734 15.8014 15.75 15.1337 15.75 14.4375C15.75 15.1337 16.0266 15.8014 16.5188 16.2937C17.0111 16.7859 17.6788 17.0625 18.375 17.0625C19.0712 17.0625 19.7389 16.7859 20.2312 16.2937C20.7234 15.8014 21 15.1337 21 14.4375C21 15.1337 21.2766 15.8014 21.7688 16.2937C22.2611 16.7859 22.9288 17.0625 23.625 17.0625C24.3212 17.0625 24.9889 16.7859 25.4812 16.2937C25.9734 15.8014 26.25 15.1337 26.25 14.4375C26.25 15.1337 26.5266 15.8014 27.0188 16.2937C27.5111 16.7859 28.1788 17.0625 28.875 17.0625C29.5712 17.0625 30.2389 16.7859 30.7312 16.2937C31.2234 15.8014 31.5 15.1337 31.5 14.4375C31.5 15.1337 31.7766 15.8014 32.2688 16.2937C32.7611 16.7859 33.4288 17.0625 34.125 17.0625C34.8212 17.0625 35.4889 16.7859 35.9812 16.2937C36.4734 15.8014 36.75 15.1337 36.75 14.4375C36.7098 15.0894 36.9285 15.7308 37.3586 16.2224C37.7887 16.7139 38.3954 17.0158 39.0469 17.0625C39.1571 17.0591 39.2669 17.0464 39.375 17.0244V12.4688H32.1562Z" fill="#FAD27A"/>
<path d="M11.1562 0.65625L10.5 8.53125H5.25L6.5625 0.65625H11.1562ZM15.75 0.65625H21V8.53125H15.75V0.65625ZM31.0997 0.728438L31.5263 8.53125H26.25V0.65625H31.0997V0.728438ZM39.0206 1.55531L41.3438 8.53125H36.75L35.3522 0.669375V0.65625H37.7738C38.0495 0.656891 38.3181 0.743977 38.5418 0.905255C38.7654 1.06653 38.9329 1.29388 39.0206 1.55531Z" fill="#FFDD52"/>
<path d="M10.5 8.53125V12.4688C10.5 13.1649 10.2234 13.8326 9.73116 14.3249C9.23887 14.8172 8.57119 15.0938 7.875 15.0938C7.17881 15.0938 6.51113 14.8172 6.01884 14.3249C5.52656 13.8326 5.25 13.1649 5.25 12.4688V8.53125H10.5ZM21 8.53125V12.4688C21 13.1649 20.7234 13.8326 20.2312 14.3249C19.7389 14.8172 19.0712 15.0938 18.375 15.0938C17.6788 15.0938 17.0111 14.8172 16.5188 14.3249C16.0266 13.8326 15.75 13.1649 15.75 12.4688V8.53125H21ZM31.5 8.53125V12.4688C31.5 13.1649 31.2234 13.8326 30.7312 14.3249C30.2389 14.8172 29.5712 15.0938 28.875 15.0938C28.1788 15.0938 27.5111 14.8172 27.0188 14.3249C26.5266 13.8326 26.25 13.1649 26.25 12.4688V8.53125H31.5ZM41.3438 8.53125V12.4688C41.3874 12.796 41.3606 13.1289 41.2652 13.4449C41.1697 13.761 41.0078 14.0531 40.7904 14.3015C40.5729 14.5499 40.3048 14.749 40.0041 14.8854C39.7034 15.0218 39.3771 15.0923 39.0469 15.0923C38.7167 15.0923 38.3903 15.0218 38.0896 14.8854C37.789 14.749 37.5209 14.5499 37.3034 14.3015C37.0859 14.0531 36.924 13.761 36.8286 13.4449C36.7331 13.1289 36.7063 12.796 36.75 12.4688V8.53125H41.3438Z" fill="#FAAB1B"/>
<path d="M5.2508 8.53125V12.4688C5.29104 13.1207 5.07233 13.7621 4.64223 14.2536C4.21213 14.7452 3.60541 15.0471 2.95393 15.0938C2.30245 15.0471 1.69572 14.7452 1.26563 14.2536C0.835526 13.7621 0.616823 13.1207 0.657054 12.4688V8.53125H5.2508ZM15.7508 8.53125V12.4688C15.7508 13.1649 15.4742 13.8326 14.982 14.3249C14.4897 14.8172 13.822 15.0938 13.1258 15.0938C12.4296 15.0938 11.7619 14.8172 11.2696 14.3249C10.7774 13.8326 10.5008 13.1649 10.5008 12.4688V8.53125H15.7508ZM26.2508 8.53125V12.4688C26.2508 13.1649 25.9742 13.8326 25.482 14.3249C24.9897 14.8172 24.322 15.0938 23.6258 15.0938C22.9296 15.0938 22.2619 14.8172 21.7697 14.3249C21.2774 13.8326 21.0008 13.1649 21.0008 12.4688V8.53125H26.2508ZM31.5271 8.53125H36.7508V12.4688C36.7508 13.1649 36.4742 13.8326 35.982 14.3249C35.4897 14.8172 34.822 15.0938 34.1258 15.0938C33.4296 15.0938 32.7619 14.8172 32.2697 14.3249C31.7774 13.8326 31.5008 13.1649 31.5008 12.4688V8.53125H31.5271Z" fill="#66A100"/>
<path d="M36.75 8.53125H31.5263L31.0997 0.728438V0.65625H35.3522V0.669375L36.75 8.53125ZM21 0.65625H26.25V8.53125H21V0.65625ZM15.75 0.65625V8.53125H10.5L11.1562 0.65625H15.75ZM6.5625 0.65625L5.25 8.53125H0.65625L2.97937 1.55531C3.06708 1.29388 3.23455 1.06653 3.45822 0.905255C3.68189 0.743977 3.9505 0.656891 4.22625 0.65625H6.5625Z" fill="#A1C203"/>
</svg>
