<svg width="42" height="42" viewBox="0 0 42 42" fill="none" xmlns="http://www.w3.org/2000/svg">
<path d="M17.7188 13.7812H24.2812V41.3438H17.7188V13.7812ZM21.6562 3.28125C22.004 3.28229 22.3373 3.4209 22.5832 3.66682C22.8291 3.91274 22.9677 4.24597 22.9688 4.59375V8.53125H19.0312V4.59375C19.0323 4.24597 19.1709 3.91274 19.4168 3.66682C19.6627 3.4209 19.996 3.28229 20.3438 3.28125H21.6562Z" fill="#DB0404"/>
<path d="M21.6562 5.25H20.3438C19.996 5.25104 19.6627 5.38965 19.4168 5.63557C19.1709 5.88149 19.0323 6.21472 19.0312 6.5625V8.53125H22.9688V6.5625C22.9677 6.21472 22.8291 5.88149 22.5832 5.63557C22.3373 5.38965 22.004 5.25104 21.6562 5.25Z" fill="#C10000"/>
<path d="M10.107 4.6001C14.2807 4.69854 17.8048 7.24478 17.8048 8.53104H15.462L10.6911 6.94947C10.3706 6.82423 10.1104 6.58093 9.96392 6.26964C9.81744 5.95836 9.79583 5.60276 9.90356 5.27603L10.107 4.6001Z" fill="#DB0404"/>
<path d="M17.8042 8.53128C17.8042 7.24503 14.2801 4.69878 10.1064 4.60034L9.90292 5.27628C9.84039 5.49116 9.82893 5.71768 9.86945 5.93778C12.2582 6.06604 14.5382 6.9775 16.3571 8.53128H17.8042Z" fill="#C10000"/>
<path d="M32.0966 5.27603C32.2043 5.60276 32.1827 5.95836 32.0362 6.26964C31.8897 6.58093 31.6295 6.82423 31.3091 6.94947L26.5381 8.53104H24.1953C24.1953 7.24478 27.7194 4.69854 31.8931 4.6001L32.0966 5.27603Z" fill="#DB0404"/>
<path d="M32.0966 5.27603L31.8931 4.6001C27.7194 4.69854 24.1953 7.24478 24.1953 8.53104H25.6423C27.4612 6.97725 29.7413 6.0658 32.13 5.93754C32.1706 5.71744 32.1591 5.49092 32.0966 5.27603Z" fill="#C10000"/>
<path d="M21 8.53117C19.7728 8.77398 18.6375 11.038 17.6991 13.7746C16.5995 17.2154 15.7292 20.7253 15.0938 24.2812C15.0938 24.2812 15.0938 19.6874 11.8125 19.6874C12.0303 17.6448 12.5754 15.6506 13.4269 13.7812C14.3846 11.4887 16.1432 9.62279 18.375 8.53117H21ZM28.5731 13.7812C29.4246 15.6506 29.9697 17.6448 30.1875 19.6874C26.9062 19.6874 26.9062 24.2812 26.9062 24.2812C26.2708 20.7253 25.4005 17.2154 24.3009 13.7746C23.3625 11.038 22.2272 8.77398 21 8.53117H23.625C25.8568 9.62279 27.6154 11.4887 28.5731 13.7812ZM31.8937 4.60023C27.72 4.69867 24.1959 7.24492 24.1959 8.53117H22.9688V4.59367L27.7331 1.0893C28.1169 0.799516 28.587 0.647149 29.0678 0.656671C29.5487 0.666192 30.0123 0.837049 30.3844 1.1418C30.784 1.47246 31.0782 1.91269 31.2309 2.40836L31.8937 4.60023Z" fill="#F92814"/>
<path d="M26.4009 2.62492C26.8958 2.62768 27.3749 2.79897 27.7594 3.11055C28.159 3.44121 28.4532 3.88144 28.6059 4.37711L28.8271 5.10883C29.8213 4.8002 30.8531 4.62908 31.8937 4.60023L31.2309 2.40836C31.0782 1.91269 30.784 1.47246 30.3844 1.1418C30.0123 0.837049 29.5487 0.666192 29.0678 0.656671C28.587 0.647149 28.1169 0.799516 27.7331 1.0893L22.9688 4.59367V4.63173L25.1081 3.05673C25.4816 2.77786 25.9348 2.62647 26.4009 2.62492Z" fill="#FF583E"/>
<path d="M19.0305 4.59367V8.53117H17.8033C17.8033 7.24492 14.2792 4.69867 10.1055 4.60023L10.7683 2.40836C10.921 1.91269 11.2153 1.47246 11.6148 1.1418C11.9869 0.837049 12.4506 0.666192 12.9314 0.656671C13.4122 0.647149 13.8823 0.799516 14.2661 1.0893L19.0305 4.59367Z" fill="#F92814"/>
<path d="M14.2398 3.11055C14.6119 2.8058 15.0756 2.63494 15.5564 2.62542C16.0372 2.6159 16.5073 2.76827 16.8911 3.05805L19.0305 4.63173V4.59367L14.2661 1.0893C13.8823 0.799516 13.4122 0.647149 12.9314 0.656671C12.4506 0.666192 11.9869 0.837049 11.6148 1.1418C11.2153 1.47246 10.921 1.91269 10.7683 2.40836L10.1055 4.60023C11.1461 4.62908 12.1779 4.8002 13.1721 5.10883L13.3933 4.37711C13.546 3.88144 13.8403 3.44121 14.2398 3.11055Z" fill="#FF583E"/>
<path d="M24.3009 13.7747L24.2812 13.7812H17.7188L17.6991 13.7747C18.6375 11.0381 19.7728 8.77406 21 8.53125C22.2272 8.77406 23.3625 11.0381 24.3009 13.7747ZM26.5387 8.53125H40.0312C40.379 8.53229 40.7123 8.6709 40.9582 8.91682C41.2041 9.16274 41.3427 9.49597 41.3438 9.84375V12.4688C41.3427 12.8165 41.2041 13.1498 40.9582 13.3957C40.7123 13.6416 40.379 13.7802 40.0312 13.7812H28.5731C27.6154 11.4888 25.8568 9.62287 23.625 8.53125H26.5387ZM17.8041 8.53125H18.375C16.1432 9.62287 14.3846 11.4888 13.4269 13.7812H1.96875C1.62097 13.7802 1.28774 13.6416 1.04182 13.3957C0.795903 13.1498 0.657289 12.8165 0.65625 12.4688V9.84375C0.657289 9.49597 0.795903 9.16274 1.04182 8.91682C1.28774 8.6709 1.62097 8.53229 1.96875 8.53125H17.8041Z" fill="#8E9E1B"/>
<path d="M24.3009 13.7747C25.4005 17.2155 26.2708 20.7253 26.9062 24.2812C26.9062 24.2812 26.9062 19.6875 30.1875 19.6875C29.9697 17.6449 29.4246 15.6506 28.5731 13.7812H39.375V38.7187C39.375 39.4149 39.0984 40.0826 38.6062 40.5749C38.1139 41.0672 37.4462 41.3437 36.75 41.3437H24.2812V13.7812L24.3009 13.7747ZM17.7188 13.7812V41.3437H5.25C4.55381 41.3437 3.88613 41.0672 3.39384 40.5749C2.90156 40.0826 2.625 39.4149 2.625 38.7187V13.7812H13.4269C12.5754 15.6506 12.0303 17.6449 11.8125 19.6875C15.0938 19.6875 15.0938 24.2812 15.0938 24.2812C15.7292 20.7253 16.5995 17.2155 17.6991 13.7747L17.7188 13.7812Z" fill="#FFBC36"/>
<path d="M17.6991 13.7747L17.7188 13.7812H24.2812L24.3009 13.7747C24.0759 13.1114 23.8259 12.4569 23.5515 11.8125H18.4485C18.1873 12.4195 17.9366 13.0817 17.6991 13.7747ZM40.0312 11.8125H27.4424C27.874 12.4358 28.2522 13.0944 28.5731 13.7812H40.0312C40.379 13.7802 40.7123 13.6416 40.9582 13.3957C41.2041 13.1498 41.3427 12.8165 41.3438 12.4688V10.5C41.3438 10.8481 41.2055 11.1819 40.9593 11.4281C40.7132 11.6742 40.3793 11.8125 40.0312 11.8125ZM0.65625 10.5V12.4688C0.657289 12.8165 0.795903 13.1498 1.04182 13.3957C1.28774 13.6416 1.62097 13.7802 1.96875 13.7812H13.4269C13.7478 13.0944 14.126 12.4358 14.5576 11.8125H1.96875C1.62065 11.8125 1.28681 11.6742 1.04067 11.4281C0.794531 11.1819 0.65625 10.8481 0.65625 10.5Z" fill="#7C8A1A"/>
<path d="M41.3438 10.0255V9.84375C41.3427 9.49597 41.2041 9.16274 40.9582 8.91682C40.7123 8.6709 40.379 8.53229 40.0312 8.53125H23.625C24.3689 8.86731 25.0601 9.3094 25.6771 9.84375H40.6875C40.9185 9.84515 41.145 9.90788 41.3438 10.0255ZM1.96875 9.84375H16.3229C16.9399 9.3094 17.6311 8.86731 18.375 8.53125H1.96875C1.62097 8.53229 1.28774 8.6709 1.04182 8.91682C0.795903 9.16274 0.657289 9.49597 0.65625 9.84375V11.1562C0.65625 10.8082 0.794531 10.4743 1.04067 10.2282C1.28681 9.98203 1.62065 9.84375 1.96875 9.84375Z" fill="#C4D143"/>
<path d="M17.7188 40.0312H24.2812V41.3438H17.7188V40.0312Z" fill="#C10000"/>
<path d="M38.0625 13.7812V38.7188C38.0625 39.0668 37.9242 39.4007 37.6781 39.6468C37.4319 39.893 37.0981 40.0312 36.75 40.0312H24.2812V41.3438H36.75C37.4462 41.3438 38.1139 41.0672 38.6062 40.5749C39.0984 40.0826 39.375 39.4149 39.375 38.7188V13.7812H38.0625ZM5.25 40.0312C4.9019 40.0312 4.56806 39.893 4.32192 39.6468C4.07578 39.4007 3.9375 39.0668 3.9375 38.7188V13.7812H2.625V38.7188C2.625 39.4149 2.90156 40.0826 3.39384 40.5749C3.88613 41.0672 4.55381 41.3438 5.25 41.3438H17.7188V40.0312H5.25Z" fill="#FFA100"/>
<path d="M24.3011 13.7747L24.2814 13.7812H24.3031L24.3011 13.7747ZM17.6992 13.7747L17.6973 13.7812H17.7189L17.6992 13.7747Z" fill="#FFBC36"/>
<path d="M17.7188 13.7812H24.2812V15.75H17.7188V13.7812Z" fill="#C10000"/>
<path d="M38.0616 15.75V13.7812H28.5723C28.8694 14.4209 29.1265 15.0784 29.342 15.75H38.0616Z" fill="#FFBC36"/>
<path d="M24.925 15.75C24.7321 15.0893 24.5246 14.4329 24.3029 13.7812H24.2812V15.75H24.925ZM13.4269 13.7812H3.9375V15.75H12.6571C12.8726 15.0784 13.1297 14.4209 13.4269 13.7812ZM17.7188 15.75V13.7812H17.6971C17.4751 14.4328 17.2676 15.0892 17.075 15.75H17.7188Z" fill="#FFA100"/>
<path d="M26.9062 24.2812C26.3296 21.0828 25.5724 17.9197 24.6382 14.8069C24.7362 15.1188 24.8318 15.4332 24.925 15.7499H24.2812V17.6563L24.3009 17.7121C25.4005 21.1529 26.2708 24.6628 26.9062 28.2187C26.9062 28.2187 26.9062 23.6249 30.1875 23.6249C30.0512 22.3272 29.7812 21.0471 29.3816 19.8049C26.9148 20.4939 26.9062 24.2812 26.9062 24.2812ZM17.075 15.7499C17.1682 15.4336 17.2637 15.1193 17.3617 14.8069C16.4276 17.9197 15.6704 21.0828 15.0938 24.2812C15.0938 24.2812 15.0852 20.4939 12.6184 19.8049C12.2188 21.0471 11.9488 22.3272 11.8125 23.6249C15.0938 23.6249 15.0938 28.2187 15.0938 28.2187C15.7292 24.6628 16.5995 21.1529 17.6991 17.7121L17.7188 17.6563V15.7499H17.075Z" fill="#FFA100"/>
<path d="M19.0312 7.21875H22.9688V8.53125H19.0312V7.21875Z" fill="#A10000"/>
<path d="M20.9994 8.53125H18.3744C17.6305 8.86731 16.9393 9.3094 16.3223 9.84375H19.4762C19.799 9.22882 20.3435 8.75962 20.9994 8.53125ZM23.6244 8.53125H20.9994C21.6552 8.75962 22.1997 9.22882 22.5225 9.84375H25.6765C25.0594 9.3094 24.3682 8.86731 23.6244 8.53125Z" fill="#FF583E"/>
<path d="M16.7344 40.3594C16.7394 40.2779 16.7121 40.1978 16.6584 40.1364C16.6047 40.0749 16.529 40.0371 16.4476 40.0312H7.83431C7.74729 40.0312 7.66383 40.0658 7.60229 40.1274C7.54076 40.1889 7.50619 40.2724 7.50619 40.3594C7.50619 40.4464 7.54076 40.5299 7.60229 40.5914C7.66383 40.6529 7.74729 40.6875 7.83431 40.6875H16.4476C16.529 40.6816 16.6047 40.6438 16.6584 40.5824C16.7121 40.521 16.7394 40.4408 16.7344 40.3594ZM6.89062 40.3594C6.89062 40.2724 6.85606 40.1889 6.79452 40.1274C6.73298 40.0658 6.64952 40.0312 6.5625 40.0312H5.90625C5.81923 40.0312 5.73577 40.0658 5.67423 40.1274C5.61269 40.1889 5.57812 40.2724 5.57812 40.3594C5.57812 40.4464 5.61269 40.5299 5.67423 40.5914C5.73577 40.6529 5.81923 40.6875 5.90625 40.6875H6.5625C6.64952 40.6875 6.73298 40.6529 6.79452 40.5914C6.85606 40.5299 6.89062 40.4464 6.89062 40.3594Z" fill="#FF8800"/>
<path d="M39.7031 10.8281C39.7082 10.7467 39.6809 10.6665 39.6272 10.6051C39.5735 10.5437 39.4977 10.5059 39.4163 10.5H30.8031C30.716 10.5 30.6326 10.5346 30.571 10.5961C30.5095 10.6576 30.4749 10.7411 30.4749 10.8281C30.4749 10.9151 30.5095 10.9986 30.571 11.0601C30.6326 11.1217 30.716 11.1562 30.8031 11.1562H39.4163C39.4977 11.1504 39.5735 11.1126 39.6272 11.0511C39.6809 10.9897 39.7082 10.9096 39.7031 10.8281ZM29.8594 10.8281C29.8594 10.7411 29.8248 10.6576 29.7633 10.5961C29.7017 10.5346 29.6183 10.5 29.5312 10.5H28.875C28.788 10.5 28.7045 10.5346 28.643 10.5961C28.5814 10.6576 28.5469 10.7411 28.5469 10.8281C28.5469 10.9151 28.5814 10.9986 28.643 11.0601C28.7045 11.1217 28.788 11.1562 28.875 11.1562H29.5312C29.6183 11.1562 29.7017 11.1217 29.7633 11.0601C29.8248 10.9986 29.8594 10.9151 29.8594 10.8281Z" fill="#7C8A1A"/>
<path d="M11.4844 10.5H8.20312C8.02191 10.5 7.875 10.6469 7.875 10.8281C7.875 11.0093 8.02191 11.1562 8.20312 11.1562H11.4844C11.6656 11.1562 11.8125 11.0093 11.8125 10.8281C11.8125 10.6469 11.6656 10.5 11.4844 10.5Z" fill="#7C8A1A"/>
<path d="M6.89062 10.5H6.23438C6.05316 10.5 5.90625 10.6469 5.90625 10.8281C5.90625 11.0093 6.05316 11.1562 6.23438 11.1562H6.89062C7.07184 11.1562 7.21875 11.0093 7.21875 10.8281C7.21875 10.6469 7.07184 10.5 6.89062 10.5Z" fill="#7C8A1A"/>
<path d="M38.0625 15.75V33.8927C38.4976 33.9426 38.9353 33.9813 39.375 34.0148V13.7812H38.0625V15.75Z" fill="#FFBC36"/>
<path d="M17.7188 15.75V23.9833C19.6855 25.9767 21.8894 27.7212 24.2812 29.1775V15.75H17.7188Z" fill="#F92814"/>
<path d="M29.3423 15.75C29.7619 17.0291 30.045 18.3489 30.1869 19.6875C26.9057 19.6875 26.9057 24.2812 26.9057 24.2812C26.9057 24.2812 26.9142 20.494 29.381 19.805C29.7806 21.0471 30.0506 22.3273 30.1869 23.625C26.9057 23.625 26.9057 28.2188 26.9057 28.2188C26.2702 24.6629 25.3999 21.153 24.3003 17.7122L24.2807 17.6564V29.1775C28.4788 31.7285 33.1809 33.3373 38.0619 33.8927V15.75H29.3423ZM11.7227 15.75C11.9182 16.1262 12.1208 16.4981 12.3303 16.8656C12.4222 16.5126 12.5312 16.1385 12.6585 15.75H11.7227ZM17.6985 17.7122C17.1735 19.2432 16.7102 20.9193 16.3236 22.4772C16.7742 22.9934 17.2392 23.4967 17.7182 23.9866V17.6564L17.6985 17.7122Z" fill="#FFDA45"/>
<path d="M26.864 24.0528C26.8505 23.9777 26.8367 23.9027 26.8227 23.8277L26.8129 23.7759L26.7538 23.4622L26.7426 23.4058C26.7183 23.2786 26.6936 23.1515 26.6685 23.0245L26.6527 22.9438C26.6245 22.7987 26.593 22.6438 26.5602 22.4811L26.5471 22.4155C26.5102 22.2322 26.4725 22.0491 26.4342 21.8662L26.425 21.8248C26.3837 21.628 26.3404 21.4219 26.2938 21.2086L26.2846 21.164L26.1369 20.4953L26.129 20.4612C25.8101 19.0397 25.4013 17.3768 24.9235 15.7473H24.2804V17.6537L24.3001 17.7095C25.3997 21.1512 26.2701 24.6619 26.9054 28.2187C26.9054 28.2187 26.9054 23.6249 30.1866 23.6249C30.0504 22.3272 29.7803 21.0471 29.3808 19.8049C26.9139 20.494 26.9054 24.2812 26.9054 24.2812L26.8673 24.0692L26.864 24.0528ZM17.7179 17.6563V15.7499H17.0748C16.6232 17.3081 16.2212 18.8802 15.8692 20.4638L15.8614 20.4979C15.8102 20.7276 15.761 20.9505 15.7137 21.1666L15.7045 21.2113C15.6717 21.3628 15.6389 21.5053 15.6113 21.6483C15.8423 21.9305 16.0832 22.2028 16.3234 22.4772C16.7099 20.9192 17.1725 19.2432 17.6982 17.7121L17.7179 17.6563Z" fill="#FFBC36"/>
<path d="M31.3701 30.7353C31.5816 30.5239 31.5145 30.114 31.2203 29.8198C30.926 29.5256 30.5161 29.4585 30.3047 29.6699C30.0933 29.8813 30.1604 30.2912 30.4546 30.5855C30.7488 30.8797 31.1587 30.9468 31.3701 30.7353Z" fill="#F6FAFD"/>
<path d="M30.0674 3.1682C30.2788 2.95676 30.2117 2.54686 29.9175 2.25265C29.6233 1.95844 29.2134 1.89133 29.002 2.10276C28.7905 2.3142 28.8576 2.7241 29.1519 3.01831C29.4461 3.31252 29.856 3.37963 30.0674 3.1682Z" fill="#F6FAFD"/>
<path d="M35.1824 32.5681C35.6032 32.1473 35.4694 31.3312 34.8835 30.7454C34.2977 30.1595 33.4816 30.0257 33.0608 30.4465C32.64 30.8674 32.7738 31.6834 33.3596 32.2693C33.9455 32.8551 34.7615 32.9889 35.1824 32.5681Z" fill="#F6FAFD"/>
<path d="M28.9783 4.54224C29.0841 4.4364 29.0507 4.23134 28.9036 4.08423C28.7565 3.93713 28.5514 3.90368 28.4456 4.00952C28.3397 4.11537 28.3732 4.32042 28.5203 4.46753C28.6674 4.61464 28.8724 4.64809 28.9783 4.54224Z" fill="#F6FAFD"/>
<path d="M28.9724 18.3257C29.0783 18.2198 29.0448 18.0148 28.8977 17.8677C28.7506 17.7206 28.5455 17.6871 28.4397 17.793C28.3338 17.8988 28.3673 18.1039 28.5144 18.251C28.6615 18.3981 28.8666 18.4315 28.9724 18.3257Z" fill="#F6FAFD"/>
</svg>
