<svg width="42" height="42" viewBox="0 0 42 42" fill="none" xmlns="http://www.w3.org/2000/svg">
<path d="M20.3438 6.5625L22.3125 5.90625L21 7.875V8.07188C20.353 7.93395 19.6927 7.86793 19.0312 7.875C18.3698 7.86793 17.7095 7.93395 17.0625 8.07188V7.875L15.75 5.90625L17.6859 6.5625L19.0312 5.25L20.3438 6.5625Z" fill="#628C1B"/>
<path d="M19.0312 7.87503C19.6927 7.86795 20.353 7.93398 21 8.0719C22.9228 8.47878 24.2812 9.60753 24.2812 11.8125C24.2812 13.2049 23.7281 14.5403 22.7436 15.5248C21.759 16.5094 20.4236 17.0625 19.0312 17.0625C17.6389 17.0625 16.3035 16.5094 15.3189 15.5248C14.3344 14.5403 13.7813 13.2049 13.7812 11.8125C13.7812 9.60753 15.1397 8.47878 17.0625 8.0719C17.7095 7.93398 18.3698 7.86795 19.0312 7.87503Z" fill="#99343B"/>
<path d="M20.6719 15.0938H20.0156C19.0974 15.0897 18.2153 14.7357 17.5489 14.1041C16.8824 13.4724 16.4818 12.6105 16.4285 11.6939C16.3752 10.7772 16.6733 9.87468 17.2621 9.17007C17.8509 8.46546 18.686 8.01174 19.5976 7.90128C19.4093 7.89143 19.2281 7.87503 19.0312 7.87503C18.3698 7.86795 17.7095 7.93398 17.0625 8.0719C15.1397 8.47878 13.7812 9.60753 13.7812 11.8125C13.7813 13.2049 14.3344 14.5403 15.3189 15.5248C16.3035 16.5094 17.6389 17.0625 19.0312 17.0625C20.4236 17.0625 21.759 16.5094 22.7436 15.5248C23.7281 14.5403 24.2812 13.2049 24.2812 11.8125C24.2812 11.7672 24.2721 11.7298 24.2714 11.6859C24.22 12.6061 23.8184 13.4718 23.1492 14.1054C22.4799 14.7391 21.5935 15.0927 20.6719 15.0938Z" fill="#7D2A30"/>
<path d="M11.1431 35.2406C11.1927 35.5878 11.1024 35.9405 10.8919 36.2211C10.6815 36.5017 10.3682 36.6872 10.0209 36.7369C9.67371 36.7865 9.321 36.6961 9.0404 36.4856C8.7598 36.2752 8.57429 35.9619 8.52469 35.6147L7.23188 26.4469C7.22531 26.3812 7.21875 26.3156 7.21875 26.2565C7.21928 25.9221 7.34648 25.6004 7.57475 25.356C7.80302 25.1116 8.11539 24.9628 8.44898 24.9395C8.78257 24.9162 9.1126 25.0202 9.37261 25.2304C9.63263 25.4407 9.80332 25.7417 9.85031 26.0728L11.1431 35.2406ZM18.375 26.25V35.4375C18.375 35.7856 18.2367 36.1194 17.9906 36.3656C17.7444 36.6117 17.4106 36.75 17.0625 36.75C16.7144 36.75 16.3806 36.6117 16.1344 36.3656C15.8883 36.1194 15.75 35.7856 15.75 35.4375V26.25C15.751 25.9022 15.8897 25.569 16.1356 25.323C16.3815 25.0771 16.7147 24.9385 17.0625 24.9375C17.4098 24.9401 17.7421 25.0792 17.9877 25.3247C18.2333 25.5703 18.3724 25.9027 18.375 26.25ZM34.7812 26.2565C34.7812 26.3156 34.7747 26.3812 34.7681 26.4469L33.4753 35.6147C33.4508 35.7866 33.3926 35.952 33.3041 36.1014C33.2156 36.2509 33.0985 36.3814 32.9596 36.4856C32.8207 36.5898 32.6626 36.6657 32.4943 36.7088C32.3261 36.7519 32.151 36.7614 31.9791 36.7369C31.8071 36.7123 31.6417 36.6541 31.4923 36.5656C31.3428 36.4771 31.2123 36.3601 31.1081 36.2211C31.0039 36.0822 30.9281 35.9241 30.885 35.7559C30.8419 35.5876 30.8323 35.4125 30.8569 35.2406L32.1497 26.0728C32.1967 25.7417 32.3674 25.4407 32.6274 25.2304C32.8874 25.0202 33.2174 24.9162 33.551 24.9395C33.8846 24.9628 34.197 25.1116 34.4253 25.356C34.6535 25.6004 34.7807 25.9221 34.7812 26.2565ZM26.25 26.25V35.4375C26.25 35.7856 26.1117 36.1194 25.8656 36.3656C25.6194 36.6117 25.2856 36.75 24.9375 36.75C24.5894 36.75 24.2556 36.6117 24.0094 36.3656C23.7633 36.1194 23.625 35.7856 23.625 35.4375V26.25C23.626 25.9022 23.7647 25.569 24.0106 25.323C24.2565 25.0771 24.5897 24.9385 24.9375 24.9375C25.2848 24.9401 25.6171 25.0792 25.8627 25.3247C26.1083 25.5703 26.2474 25.9027 26.25 26.25Z" fill="#8EA241"/>
<path d="M7.875 27.569C7.87556 27.2502 7.99149 26.9423 8.20138 26.7022C8.41127 26.4622 8.70094 26.3062 9.01687 26.2631C9.32689 26.2197 9.64217 26.2896 9.90478 26.46L9.85031 26.0741C9.80332 25.743 9.63263 25.442 9.37261 25.2318C9.1126 25.0215 8.78257 24.9175 8.44898 24.9408C8.11539 24.9641 7.80302 25.1129 7.57475 25.3573C7.34648 25.6017 7.21928 25.9235 7.21875 26.2579C7.21875 26.3169 7.22531 26.3825 7.23188 26.4482L8.52469 35.616C8.55104 35.8051 8.6186 35.9861 8.72258 36.1462C8.82657 36.3063 8.96444 36.4416 9.12647 36.5426L7.88813 27.7594C7.88156 27.6937 7.875 27.6281 7.875 27.569ZM17.7188 26.25C17.95 26.2509 18.1767 26.3141 18.375 26.4331V26.25C18.3724 25.9027 18.2333 25.5703 17.9877 25.3247C17.7421 25.0792 17.4098 24.9401 17.0625 24.9375C16.7147 24.9385 16.3815 25.0771 16.1356 25.323C15.8897 25.569 15.751 25.9022 15.75 26.25V35.4375C15.7513 35.6666 15.8125 35.8915 15.9276 36.0896C16.0428 36.2878 16.2078 36.4523 16.4062 36.5669V27.5625C16.4073 27.2147 16.5459 26.8815 16.7918 26.6355C17.0377 26.3896 17.371 26.251 17.7188 26.25ZM32.8059 27.3853C32.8363 27.1718 32.9184 26.969 33.0452 26.7946C33.1719 26.6202 33.3395 26.4795 33.5332 26.3848C33.7269 26.2901 33.9408 26.2442 34.1563 26.2513C34.3718 26.2583 34.5823 26.318 34.7694 26.4252C34.7753 26.3674 34.7812 26.309 34.7812 26.2565C34.7807 25.9221 34.6535 25.6004 34.4253 25.356C34.197 25.1116 33.8846 24.9628 33.551 24.9395C33.2174 24.9162 32.8874 25.0202 32.6274 25.2304C32.3674 25.4407 32.1967 25.7417 32.1497 26.0728L30.8569 35.2406C30.8184 35.5034 30.8605 35.7716 30.9777 36.0099C31.0948 36.2483 31.2815 36.4454 31.5131 36.5754V36.5531L32.8059 27.3853ZM25.5938 26.25C25.825 26.2509 26.0517 26.3141 26.25 26.4331V26.25C26.2474 25.9027 26.1083 25.5703 25.8627 25.3247C25.6171 25.0792 25.2848 24.9401 24.9375 24.9375C24.5897 24.9385 24.2565 25.0771 24.0106 25.323C23.7647 25.569 23.626 25.9022 23.625 26.25V35.4375C23.6263 35.6666 23.6875 35.8915 23.8026 36.0896C23.9178 36.2878 24.0828 36.4523 24.2812 36.5669V27.5625C24.2823 27.2147 24.4209 26.8815 24.6668 26.6355C24.9127 26.3896 25.246 26.251 25.5938 26.25Z" fill="#628C1B"/>
<path d="M28.875 4.59375H13.125V0.65625H28.875V2.625V4.59375Z" fill="#88AB00"/>
<path d="M39.375 21.6562L37.0519 39.0666C36.9689 39.6969 36.6594 40.2755 36.1813 40.6945C35.7031 41.1135 35.0889 41.3443 34.4531 41.3438H7.54688C6.91111 41.3443 6.29687 41.1135 5.81871 40.6945C5.34055 40.2755 5.03112 39.6969 4.94812 39.0666L2.625 21.6562H39.375ZM34.7681 26.4469C34.7747 26.3812 34.7812 26.3156 34.7812 26.2566C34.7807 25.9222 34.6535 25.6004 34.4253 25.356C34.197 25.1116 33.8846 24.9628 33.551 24.9395C33.2174 24.9162 32.8874 25.0202 32.6274 25.2305C32.3674 25.4407 32.1967 25.7417 32.1497 26.0728L30.8569 35.2406C30.8073 35.5879 30.8976 35.9406 31.1081 36.2212C31.3185 36.5018 31.6318 36.6873 31.9791 36.7369C32.3263 36.7865 32.679 36.6961 32.9596 36.4857C33.2402 36.2752 33.4257 35.9619 33.4753 35.6147L34.7681 26.4469ZM26.25 35.4375V26.25C26.2474 25.9027 26.1083 25.5704 25.8627 25.3248C25.6171 25.0792 25.2848 24.9401 24.9375 24.9375C24.5897 24.9385 24.2565 25.0772 24.0106 25.3231C23.7647 25.569 23.626 25.9022 23.625 26.25V35.4375C23.625 35.7856 23.7633 36.1194 24.0094 36.3656C24.2556 36.6117 24.5894 36.75 24.9375 36.75C25.2856 36.75 25.6194 36.6117 25.8656 36.3656C26.1117 36.1194 26.25 35.7856 26.25 35.4375ZM18.375 35.4375V26.25C18.3724 25.9027 18.2333 25.5704 17.9877 25.3248C17.7421 25.0792 17.4098 24.9401 17.0625 24.9375C16.7147 24.9385 16.3815 25.0772 16.1356 25.3231C15.8897 25.569 15.751 25.9022 15.75 26.25V35.4375C15.75 35.7856 15.8883 36.1194 16.1344 36.3656C16.3806 36.6117 16.7144 36.75 17.0625 36.75C17.4106 36.75 17.7444 36.6117 17.9906 36.3656C18.2367 36.1194 18.375 35.7856 18.375 35.4375ZM10.0144 36.7369C10.1872 36.7139 10.3538 36.6567 10.5044 36.5688C10.655 36.4809 10.7866 36.364 10.8916 36.2248C10.9966 36.0856 11.0729 35.9269 11.1161 35.7579C11.1593 35.589 11.1685 35.4131 11.1431 35.2406L9.85031 26.0728C9.80332 25.7417 9.63263 25.4407 9.37261 25.2305C9.1126 25.0202 8.78257 24.9162 8.44898 24.9395C8.11539 24.9628 7.80302 25.1116 7.57475 25.356C7.34648 25.6004 7.21928 25.9222 7.21875 26.2566C7.21875 26.3156 7.22531 26.3812 7.23188 26.4469L8.52469 35.6147C8.54802 35.7865 8.60519 35.952 8.69287 36.1017C8.78055 36.2513 8.89702 36.3821 9.03554 36.4864C9.17405 36.5908 9.33188 36.6666 9.49989 36.7096C9.6679 36.7526 9.84276 36.7619 10.0144 36.7369Z" fill="#FAD27A"/>
<path d="M39.375 21.6562H1.3125C1.13845 21.6562 0.971532 21.5871 0.848461 21.464C0.72539 21.341 0.65625 21.174 0.65625 21V17.0625C0.65625 16.8885 0.72539 16.7215 0.848461 16.5985C0.971532 16.4754 1.13845 16.4062 1.3125 16.4062H40.6875C40.8615 16.4062 41.0285 16.4754 41.1515 16.5985C41.2746 16.7215 41.3438 16.8885 41.3438 17.0625V21C41.3438 21.174 41.2746 21.341 41.1515 21.464C41.0285 21.5871 40.8615 21.6562 40.6875 21.6562H39.375Z" fill="#88AB00"/>
<path d="M38.0625 16.4062H36.75V6.5625C36.749 5.69258 36.4029 4.85858 35.7878 4.24346C35.1727 3.62833 34.3387 3.28229 33.4688 3.28125H28.875V1.96875H33.4688C34.6867 1.97014 35.8543 2.45457 36.7155 3.31576C37.5767 4.17696 38.0611 5.34459 38.0625 6.5625V16.4062ZM5.25 16.4062H3.9375V6.5625C3.93889 5.34459 4.42332 4.17696 5.28451 3.31576C6.14571 2.45457 7.31334 1.97014 8.53125 1.96875H13.125V3.28125H8.53125C7.66133 3.28229 6.82733 3.62833 6.21221 4.24346C5.59708 4.85858 5.25104 5.69258 5.25 6.5625V16.4062Z" fill="#CEDADA"/>
<path d="M13.125 0.65625V4.59375H28.875V0.65625H26.9062C26.9062 1.17839 26.6988 1.67915 26.3296 2.04837C25.9604 2.41758 25.4596 2.625 24.9375 2.625H17.0625C16.5404 2.625 16.0396 2.41758 15.6704 2.04837C15.3012 1.67915 15.0938 1.17839 15.0938 0.65625H13.125ZM40.6875 16.4062H35.7656C36.2007 16.4062 36.618 16.5791 36.9257 16.8868C37.2334 17.1945 37.4062 17.6118 37.4062 18.0469C37.4062 18.482 37.2334 18.8993 36.9257 19.207C36.618 19.5146 36.2007 19.6875 35.7656 19.6875H6.23438C5.79925 19.6875 5.38195 19.5146 5.07428 19.207C4.7666 18.8993 4.59375 18.482 4.59375 18.0469C4.59375 17.6118 4.7666 17.1945 5.07428 16.8868C5.38195 16.5791 5.79925 16.4062 6.23438 16.4062H1.3125C1.13845 16.4062 0.971532 16.4754 0.848461 16.5985C0.72539 16.7215 0.65625 16.8885 0.65625 17.0625V21C0.65625 21.174 0.72539 21.341 0.848461 21.464C0.971532 21.5871 1.13845 21.6562 1.3125 21.6562H40.6875C40.8615 21.6562 41.0285 21.5871 41.1515 21.464C41.2746 21.341 41.3438 21.174 41.3438 21V17.0625C41.3438 16.8885 41.2746 16.7215 41.1515 16.5985C41.0285 16.4754 40.8615 16.4062 40.6875 16.4062Z" fill="#628C1B"/>
<path d="M35.1829 39.375H15.1594C14.0546 39.3748 12.9634 39.1317 11.963 38.6629C10.9626 38.1941 10.0776 37.511 9.37059 36.6621C9.14817 36.5796 8.95224 36.4385 8.80364 36.2536C8.65504 36.0687 8.55932 35.847 8.52666 35.6121L8.49056 35.3542C7.66461 33.7968 7.41102 31.9992 7.77394 30.2741L7.23188 26.4469C7.22531 26.3812 7.21875 26.3156 7.21875 26.2566C7.21928 25.9222 7.34648 25.6004 7.57475 25.356C7.80302 25.1116 8.11539 24.9628 8.44898 24.9395C8.78257 24.9162 9.1126 25.0202 9.37261 25.2305C9.63263 25.4407 9.80332 25.7417 9.85031 26.0728L9.90019 26.4239C11.3045 25.0477 13.1932 24.2783 15.1594 24.2812H39.0246L39.375 21.6562H2.625L4.94812 39.0666C5.03112 39.6969 5.34055 40.2755 5.81871 40.6945C6.29687 41.1135 6.91111 41.3443 7.54688 41.3438H34.4531C35.0889 41.3443 35.7031 41.1135 36.1813 40.6945C36.6594 40.2755 36.9689 39.6969 37.0519 39.0666L37.1273 38.5035C36.8825 38.777 36.5828 38.996 36.2478 39.1461C35.9128 39.2962 35.55 39.3742 35.1829 39.375Z" fill="#F5B662"/>
<path d="M31.8281 16.4062H10.1719C9.62822 16.4062 9.1875 16.847 9.1875 17.3906C9.1875 17.9343 9.62822 18.375 10.1719 18.375H31.8281C32.3718 18.375 32.8125 17.9343 32.8125 17.3906C32.8125 16.847 32.3718 16.4062 31.8281 16.4062Z" fill="#ACCC5F"/>
<path d="M36.75 14.4375H38.0625V16.4062H36.75V14.4375ZM3.9375 14.4375H5.25V16.4062H3.9375V14.4375ZM28.875 1.96875H31.5V3.28125H28.875V1.96875ZM10.5 1.96875H13.125V3.28125H10.5V1.96875Z" fill="#A3B7B6"/>
<path d="M24.2812 1.3125H17.7188C17.3563 1.3125 17.0625 1.60631 17.0625 1.96875C17.0625 2.33119 17.3563 2.625 17.7188 2.625H24.2812C24.6437 2.625 24.9375 2.33119 24.9375 1.96875C24.9375 1.60631 24.6437 1.3125 24.2812 1.3125Z" fill="#ACCC5F"/>
<path d="M22.3125 10.8544V9.1875C22.3135 8.83972 22.4522 8.50649 22.6981 8.26057C22.944 8.01465 23.2772 7.87604 23.625 7.875C23.9723 7.87758 24.3046 8.01668 24.5502 8.26227C24.7958 8.50785 24.9349 8.8402 24.9375 9.1875V10.8544C24.539 10.6223 24.0861 10.5 23.625 10.5C23.1639 10.5 22.711 10.6223 22.3125 10.8544Z" fill="#88AB00"/>
<path d="M21 15.75C20.998 15.9717 21.0267 16.1925 21.0853 16.4063H19.1166C19.058 16.1925 19.0293 15.9717 19.0313 15.75L18.375 13.125C18.3741 12.9147 18.4006 12.7051 18.4538 12.5016C18.5923 11.9308 18.9186 11.4231 19.3804 11.0601C19.8422 10.6971 20.4126 10.4998 21 10.5C21.22 10.481 21.4415 10.508 21.6505 10.5792C21.8595 10.6503 22.0514 10.7642 22.2141 10.9135C21.842 11.1502 21.5356 11.4769 21.3234 11.8635C21.1112 12.2501 20.9999 12.684 21 13.125V15.75ZM26.1647 16.4063C26.2233 16.1925 26.252 15.9717 26.25 15.75V13.125C26.2488 12.429 25.9729 11.7616 25.4822 11.2679C25.347 11.1336 25.1973 11.0148 25.036 10.9135C25.1986 10.7642 25.3905 10.6503 25.5995 10.5792C25.8085 10.508 26.0301 10.481 26.25 10.5C26.9462 10.5 27.6139 10.7766 28.1062 11.2689C28.5985 11.7612 28.875 12.4289 28.875 13.125L28.2188 15.75C28.2208 15.9717 28.1921 16.1925 28.1335 16.4063H26.1647Z" fill="#FF8B26"/>
<path d="M25.036 10.9134C25.1974 11.0147 25.3471 11.1336 25.4823 11.2678C25.9729 11.7615 26.2489 12.4289 26.2501 13.125V15.75C26.2521 15.9716 26.2234 16.1925 26.1648 16.4062H21.0854C21.0268 16.1925 20.9981 15.9716 21.0001 15.75V13.125C21 12.684 21.1112 12.2501 21.3235 11.8635C21.5357 11.4769 21.842 11.1501 22.2142 10.9134L22.3126 10.8543C22.7111 10.6223 23.164 10.5 23.6251 10.5C24.0862 10.5 24.5391 10.6223 24.9376 10.8543L25.036 10.9134Z" fill="#FAAB1B"/>
<path d="M0.67525 0.675284C0.67525 0.675284 5.39369 0.307784 9.07525 2.78185C9.25244 2.89341 9.42306 3.0181 9.59369 3.14935C9.6265 3.45778 9.58056 4.32469 8.524 5.74875C8.13163 6.27547 7.69942 6.7713 7.23119 7.23188C6.77061 7.70011 6.27477 8.13232 5.74806 8.52469C4.324 9.58125 3.45775 9.62719 3.14931 9.59438C0.274937 5.85375 0.67525 0.675284 0.67525 0.675284Z" fill="#CEDADA"/>
<path d="M5.82789 8.63622L8.34789 11.1562L8.3807 11.2153C7.99239 11.4118 7.6476 11.6845 7.36687 12.0171C7.08614 12.3497 6.87521 12.7354 6.74664 13.1512L6.67445 13.125C5.97611 12.474 5.28482 11.8155 4.6007 11.1497C4.37102 10.9265 4.15445 10.71 3.95102 10.5065C3.66313 10.2216 3.3956 9.91676 3.15039 9.59435C3.45883 9.62716 4.32508 9.58122 5.74914 8.52466L5.82789 8.63622ZM18.3754 13.125L19.0316 15.75C19.0296 15.9716 19.0583 16.1925 19.117 16.4062H16.6823C16.933 15.7801 17.0622 15.1119 17.0629 14.4375C17.0629 12.2325 15.7045 11.1037 13.7816 10.6968V10.5L14.9826 8.70185C16.236 10.0734 17.4304 11.4122 18.3754 12.4818L18.4541 12.5015C18.4009 12.705 18.3745 12.9146 18.3754 13.125Z" fill="#A3B7B6"/>
<path d="M8.5325 8.53128L9.845 10.5V10.6969C9.33434 10.7968 8.84122 10.9715 8.38156 11.2153L8.34875 11.1563L5.82875 8.63628L5.75 8.52472C6.27671 8.13235 6.77254 7.70014 7.23313 7.2319C7.70136 6.77132 8.13357 6.27549 8.52594 5.74878L8.6375 5.82753L11.1575 8.34753L11.2428 8.43284L10.4684 9.18753L8.5325 8.53128Z" fill="#516667"/>
<path d="M14.8891 8.59678L13.1238 9.1874L11.8113 7.8749L11.2403 8.43271L11.155 8.3474L8.635 5.8274L8.52344 5.74865C9.58 4.32459 9.62594 3.45768 9.59313 3.1499C9.91568 3.39494 10.2205 3.66248 10.5053 3.95053C11.8047 5.2499 13.3797 6.94303 14.8891 8.59678Z" fill="#B8CFCD"/>
<path d="M32.1562 5.90625H37.4062C37.5803 5.90625 37.7472 5.97539 37.8703 6.09846C37.9934 6.22153 38.0625 6.38845 38.0625 6.5625V7.875H31.5V6.5625C31.5 6.38845 31.5691 6.22153 31.6922 6.09846C31.8153 5.97539 31.9822 5.90625 32.1562 5.90625Z" fill="#56D5F8"/>
<path d="M38.0625 7.875L40.6875 11.1562H33.4688L31.5 7.875H38.0625Z" fill="#99EFFF"/>
<path d="M33.4688 11.1562H40.6875V16.4062H33.4688V11.1562Z" fill="#69E5FD"/>
<path d="M21 15.75C20.998 15.9717 21.0267 16.1925 21.0853 16.4063H19.1166C19.058 16.1925 19.0293 15.9717 19.0313 15.75L18.375 13.125C18.3741 12.9147 18.4006 12.7051 18.4538 12.5016C18.5923 11.9308 18.9186 11.4231 19.3804 11.0601C19.8422 10.6971 20.4126 10.4998 21 10.5C21.22 10.481 21.4415 10.508 21.6505 10.5792C21.8595 10.6503 22.0514 10.7642 22.2141 10.9135C21.842 11.1502 21.5356 11.4769 21.3234 11.8635C21.1112 12.2501 20.9999 12.684 21 13.125V15.75ZM26.25 10.5C26.9462 10.5 27.6139 10.7766 28.1062 11.2689C28.5985 11.7612 28.875 12.4289 28.875 13.125L28.2188 15.75C28.2208 15.9717 28.1921 16.1925 28.1335 16.4063H26.1647C26.2233 16.1925 26.252 15.9717 26.25 15.75V13.125C26.2488 12.429 25.9729 11.7616 25.4822 11.2679C25.347 11.1336 25.1973 11.0148 25.036 10.9135C25.1986 10.7642 25.3905 10.6503 25.5995 10.5792C25.8085 10.508 26.0301 10.481 26.25 10.5Z" fill="#FF8B26"/>
<path d="M13.125 9.1875L14.8903 8.59688C14.9243 8.62874 14.9551 8.66391 14.9822 8.70188L13.7812 10.5V10.6969C13.1343 10.559 12.474 10.4929 11.8125 10.5C11.151 10.4929 10.4907 10.559 9.84375 10.6969V10.5L8.53125 8.53125L10.4672 9.1875L11.2416 8.43281L11.8125 7.875L13.125 9.1875Z" fill="#88AB00"/>
<path d="M9.84393 10.6969C10.4909 10.559 11.1512 10.493 11.8127 10.5C12.4742 10.493 13.1344 10.559 13.7814 10.6969C15.7042 11.1038 17.0627 12.2325 17.0627 14.4375C17.062 15.112 16.9328 15.7801 16.6821 16.4063H6.94331C6.69258 15.7801 6.5634 15.112 6.56268 14.4375C6.55867 14.002 6.62062 13.5683 6.74643 13.1513C6.875 12.7355 7.08593 12.3498 7.36666 12.0172C7.64739 11.6846 7.99218 11.4119 8.3805 11.2153C8.84016 10.9715 9.33328 10.7968 9.84393 10.6969Z" fill="#CC464F"/>
<path d="M33.4688 11.1562H28.875V16.4062H33.4688V11.1562Z" fill="#01A3EC"/>
<path d="M32.1917 9.02737L31.5 7.875L28.875 11.1562H29.5312L32.1917 9.02737Z" fill="#0191D8"/>
<path d="M33.4688 11.1562L32.1917 9.02734L29.5312 11.1562H28.875H33.4688Z" fill="#006CBF"/>
<path d="M33.4688 11.1562V16.4062H40.6875V15.0938H38.7188C37.8485 15.0938 37.0139 14.748 36.3986 14.1327C35.7832 13.5173 35.4375 12.6827 35.4375 11.8125V11.1562H33.4688Z" fill="#30CFFF"/>
<path d="M33.5619 7.875H31.5L33.4688 11.1562H35.4375L33.5619 7.875Z" fill="#69E5FD"/>
<path d="M32.8125 5.90625H32.1562C31.9822 5.90625 31.8153 5.97539 31.6922 6.09846C31.5691 6.22153 31.5 6.38845 31.5 6.5625V7.875H38.0625V7.21875H34.125C33.7769 7.21875 33.4431 7.08047 33.1969 6.83433C32.9508 6.58819 32.8125 6.25435 32.8125 5.90625Z" fill="#01C1FF"/>
<path d="M10.8283 15.0938C10.2987 15.0939 9.78535 14.9109 9.37514 14.576C8.96493 14.241 8.68307 13.7746 8.5773 13.2556C8.47152 12.7367 8.54832 12.1972 8.79469 11.7284C9.04106 11.2596 9.44186 10.8903 9.92925 10.6831C9.90168 10.689 9.8715 10.6903 9.84393 10.6962C9.33328 10.7961 8.84016 10.9708 8.3805 11.2147C7.99216 11.4114 7.64736 11.6842 7.36664 12.0169C7.08591 12.3496 6.87499 12.7354 6.74643 13.1513C6.62062 13.5683 6.55867 14.0019 6.56268 14.4375C6.5634 15.112 6.69258 15.7801 6.94331 16.4063H16.6821C16.8485 15.9846 16.9609 15.5436 17.0167 15.0938H10.8283Z" fill="#99343B"/>
<path d="M14.8903 8.59688L13.125 9.1875V9.84375H10.5V9.15534L10.4672 9.1875L8.53125 8.53125L9.84375 10.5V10.6969C10.4907 10.559 11.151 10.4929 11.8125 10.5C12.474 10.4929 13.1343 10.559 13.7812 10.6969V10.5L14.9822 8.70188C14.9551 8.66391 14.9243 8.62874 14.8903 8.59688Z" fill="#628C1B"/>
<path d="M15.75 15.0938C15.576 15.0938 15.409 15.0246 15.286 14.9015C15.1629 14.7785 15.0938 14.6115 15.0938 14.4375C15.0938 13.3704 14.4926 12.4688 13.7812 12.4688C13.6072 12.4688 13.4403 12.3996 13.3172 12.2765C13.1941 12.1535 13.125 11.9865 13.125 11.8125C13.125 11.6385 13.1941 11.4715 13.3172 11.3485C13.4403 11.2254 13.6072 11.1562 13.7812 11.1562C15.2532 11.1562 16.4062 12.6 16.4062 14.4375C16.4062 14.6115 16.3371 14.7785 16.214 14.9015C16.091 15.0246 15.924 15.0938 15.75 15.0938Z" fill="#FF5863"/>
<path d="M28.2188 15.75L28.3828 15.0938H28.2188C28.0447 15.0938 27.8778 15.0247 27.7547 14.9016C27.6316 14.7785 27.5625 14.6116 27.5625 14.4375V12.4688C27.5572 12.1431 27.4415 11.8289 27.2344 11.5776C27.1338 11.4523 27.0815 11.2951 27.0872 11.1345C27.0929 10.9739 27.156 10.8207 27.2652 10.7028C26.9436 10.5687 26.5985 10.4998 26.25 10.5C26.03 10.481 25.8085 10.508 25.5995 10.5792C25.3905 10.6503 25.1986 10.7642 25.0359 10.9135C25.1973 11.0148 25.347 11.1336 25.4822 11.2679C25.6094 11.3987 25.7231 11.542 25.8215 11.6957C26.1 12.1205 26.2488 12.6171 26.25 13.125V15.75C26.2521 15.9717 26.2234 16.1926 26.1647 16.4063H28.1334C28.192 16.1925 28.2208 15.9717 28.2188 15.75ZM21 15.75V13.125C20.9999 12.684 21.1111 12.2501 21.3234 11.8635C21.5356 11.4769 21.8419 11.1502 22.2141 10.9135C22.0514 10.7642 21.8595 10.6503 21.6505 10.5792C21.4415 10.508 21.22 10.481 21 10.5C20.6538 10.5021 20.3116 10.5733 19.9933 10.7094C20.0997 10.8278 20.1606 10.9802 20.1651 11.1394C20.1695 11.2985 20.1172 11.4541 20.0176 11.5783C19.8099 11.8292 19.6935 12.1431 19.6875 12.4688V14.4375C19.6875 14.6116 19.6184 14.7785 19.4953 14.9016C19.3722 15.0247 19.2053 15.0938 19.0312 15.0938H18.8672L19.0312 15.75C19.0292 15.9717 19.058 16.1925 19.1166 16.4063H21.0853C21.0266 16.1926 20.9979 15.9717 21 15.75Z" fill="#F37924"/>
<path d="M22.3126 13.7812V11.8125C22.3126 11.4644 22.4509 11.1306 22.697 10.8844C22.9432 10.6383 23.277 10.5 23.6251 10.5C23.164 10.5005 22.7113 10.6227 22.3126 10.8544L22.2142 10.9134C21.8423 11.1504 21.5362 11.4773 21.324 11.8638C21.1118 12.2503 21.0004 12.6841 21.0001 13.125V15.75C20.9981 15.9716 21.0268 16.1925 21.0854 16.4062H26.1648C26.2234 16.1925 26.2521 15.9716 26.2501 15.75V15.0938H23.6251C23.277 15.0938 22.9432 14.9555 22.697 14.7093C22.4509 14.4632 22.3126 14.1293 22.3126 13.7812Z" fill="#FF9B00"/>
<path d="M23.9531 9.84375C23.7089 9.84004 23.4747 9.74564 23.2962 9.57891C23.1177 9.41218 23.0075 9.18502 22.9871 8.94159C22.9668 8.69816 23.0376 8.45585 23.186 8.26176C23.3343 8.06767 23.5495 7.93567 23.7897 7.89141C23.7352 7.88227 23.6802 7.87679 23.625 7.875C23.2772 7.87604 22.944 8.01465 22.6981 8.26057C22.4522 8.50649 22.3135 8.83972 22.3125 9.1875V10.8544C22.711 10.6223 23.1639 10.5 23.625 10.5C24.0861 10.5 24.539 10.6223 24.9375 10.8544V9.84375H23.9531Z" fill="#628C1B"/>
<path d="M9.07586 2.78189C8.99974 2.73136 8.92099 2.68805 8.84421 2.63949C7.93996 3.83884 6.89247 4.92313 5.72505 5.86824C5.3549 6.15036 4.89566 6.29 4.43112 6.26169C3.96658 6.23338 3.5277 6.039 3.19455 5.71402C1.63202 4.16855 0.792674 1.16949 0.673236 0.721924C0.645017 1.1603 0.407455 6.02574 3.14992 9.59442C3.45836 9.62724 4.32461 9.5813 5.74867 8.52474C6.27539 8.13236 6.77122 7.70016 7.2318 7.23192C7.70003 6.77134 8.13224 6.27551 8.52461 5.7488C9.58117 4.32408 9.62711 3.45783 9.5943 3.15005C9.42367 3.0188 9.25305 2.89346 9.07586 2.78189Z" fill="#B8CFCD"/>
<path d="M5.57812 4.59375C6.12178 4.59375 6.5625 4.15303 6.5625 3.60938C6.5625 3.06572 6.12178 2.625 5.57812 2.625C5.03447 2.625 4.59375 3.06572 4.59375 3.60938C4.59375 4.15303 5.03447 4.59375 5.57812 4.59375Z" fill="#2C3D45"/>
<path d="M2.62484 2.62501L1.84128 0.664791C1.11941 0.641822 0.675781 0.675291 0.675781 0.675291V0.704822C0.780125 0.995541 1.42916 2.62501 2.62484 2.62501Z" fill="#839D9C"/>
<path d="M5.57812 3.9375C5.75934 3.9375 5.90625 3.79059 5.90625 3.60938C5.90625 3.42816 5.75934 3.28125 5.57812 3.28125C5.39691 3.28125 5.25 3.42816 5.25 3.60938C5.25 3.79059 5.39691 3.9375 5.57812 3.9375Z" fill="white"/>
<path d="M5.75 8.52472L5.82875 8.63628L8.34875 11.1563L8.38156 11.2153C8.84122 10.9715 9.33434 10.7968 9.845 10.6969V10.5L6.90041 7.55478C6.53737 7.90158 6.15317 8.22552 5.75 8.52472ZM11.2428 8.43284L11.1575 8.34753L8.6375 5.82753L8.52594 5.74878C8.34219 5.99947 8.12234 6.26919 7.86969 6.55531L10.4855 9.17112L11.2428 8.43284Z" fill="#3E5857"/>
<path d="M10.4671 9.18739L10.4835 9.17099L7.86772 6.55518C7.55985 6.90255 7.23642 7.23583 6.89844 7.55399L9.84369 10.4999L8.53119 8.53114L10.4671 9.18739Z" fill="#516667"/>
<path d="M7.46439 7.46346C7.9435 6.99094 8.3862 6.48286 8.7887 5.94359C9.40234 5.22867 9.79655 4.35182 9.92402 3.41834C9.81442 3.32712 9.70548 3.23524 9.59589 3.14927C9.4863 3.0633 9.38064 2.99571 9.27302 2.9209C9.25068 2.97883 9.24589 3.04205 9.25923 3.10268C9.26438 3.12957 9.26788 3.15674 9.26973 3.18405C9.29139 3.39209 9.28417 4.1763 8.26173 5.55509C7.87875 6.06743 7.45755 6.55005 7.00173 6.99884C6.55304 7.45535 6.07041 7.87721 5.55798 8.2608C4.17986 9.28127 3.39761 9.28915 3.18105 9.26618C3.15904 9.26484 3.13712 9.26221 3.11542 9.2583C3.05342 9.24181 2.98783 9.24503 2.92773 9.26749C3.00452 9.37577 3.07408 9.48734 3.15611 9.59562C3.23814 9.7039 3.3333 9.81546 3.42517 9.92374C4.35783 9.79673 5.23399 9.4032 5.94845 8.7904C6.48662 8.38709 6.99339 7.9435 7.46439 7.46346Z" fill="#839D9C"/>
<path d="M23.517 12.5586C23.7795 12.7994 23.9961 13.0757 24.2619 13.3119C24.524 13.567 24.8609 13.7315 25.2233 13.7812C25.2714 13.7884 25.3206 13.7834 25.3663 13.7667C25.4233 13.7358 25.4664 13.6845 25.4871 13.623C25.5668 13.4285 25.6023 13.2188 25.5909 13.0089C25.5796 12.7991 25.5217 12.5943 25.4215 12.4096C25.2412 12.0664 24.9795 11.7726 24.6592 11.554C24.339 11.3355 23.97 11.1989 23.5846 11.1562C23.4463 11.1485 23.3097 11.1906 23.1997 11.2748C23.0897 11.3591 23.0134 11.48 22.9848 11.6155C22.8903 12.0303 23.2316 12.2941 23.517 12.5586Z" fill="#FBCB00"/>
</svg>
