<svg width="42" height="42" viewBox="0 0 42 42" fill="none" xmlns="http://www.w3.org/2000/svg">
<g clip-path="url(#clip0_420_1231)">
<path d="M20.8683 4.71377C16.4206 9.5756 16.7562 17.1221 21.6181 21.5698C21.8509 21.783 22.0921 21.9869 22.3411 22.1811L33.0074 1.30906C28.7832 0.0826114 24.0384 1.2486 20.8683 4.71377Z" fill="#F77A8B"/>
<path d="M38.4345 4.67017L33.0067 4.96047L26.4669 12.3197L25.373 19.1528L28.7508 24.6629C32.2821 24.9332 35.8974 23.6358 38.4733 20.8201C42.6934 16.2071 42.6072 9.17655 38.4345 4.67017Z" fill="#F77A8B"/>
<path d="M37.8443 18.1841C33.1591 18.1841 29.0787 15.597 26.9518 11.7739L26.4669 12.3195L25.373 19.1527L28.7508 24.6628C32.2821 24.9331 35.8974 23.6357 38.4733 20.82C39.2675 19.9531 39.9292 18.9736 40.4369 17.9131C39.5845 18.0936 38.7156 18.1844 37.8443 18.1841Z" fill="#E15B70"/>
<path d="M25.3881 5.7273C25.3881 4.18979 25.6674 2.71766 26.1768 1.35791C24.2039 1.96018 22.3613 3.08171 20.8683 4.71389C16.4206 9.57572 16.7562 17.1222 21.6181 21.5698C21.8509 21.7831 22.0921 21.987 22.3411 22.1811L27.3329 12.4131C26.1017 10.4813 25.3881 8.18775 25.3881 5.7273Z" fill="#E15B70"/>
<path d="M37.7233 3.96411C36.3267 2.68639 34.7089 1.80398 33.0064 1.30908C31.5454 2.3663 30.1659 3.59505 28.9015 4.97711C25.1895 9.0347 22.8749 13.9681 22.3825 18.8684C22.2693 20.0024 22.2544 21.1082 22.34 22.181C24.2425 23.6662 26.479 24.4891 28.7506 24.6628C28.1415 23.1568 27.9182 21.3838 28.1125 19.4432C28.4808 15.7696 30.27 12.0124 33.1502 8.864C34.7356 7.13109 36.5334 5.71195 38.4341 4.67015C38.207 4.42511 37.9699 4.18957 37.7233 3.96411Z" fill="#5F66AF"/>
<path d="M17.9179 9.33341C20.3331 9.33341 22.2909 7.37555 22.2909 4.96041C22.2909 2.54526 20.3331 0.587402 17.9179 0.587402C15.5028 0.587402 13.5449 2.54526 13.5449 4.96041C13.5449 7.37555 15.5028 9.33341 17.9179 9.33341Z" fill="#CC7C74"/>
<path d="M28.1125 19.4431C28.2678 17.894 28.6767 16.3301 29.3127 14.8032C27.6689 13.2575 26.4454 11.2705 25.8309 9.03125C23.9156 12.1304 22.7203 15.5071 22.3825 18.8683C22.2693 20.0023 22.2544 21.1081 22.34 22.1809C24.2425 23.6661 26.479 24.489 28.7506 24.6628C28.1414 23.1568 27.9182 21.3838 28.1125 19.4431Z" fill="#4C5696"/>
<path d="M15.3209 23.392C20.6196 23.392 24.9151 19.0964 24.9151 13.7977C24.9151 8.49888 20.6196 4.20337 15.3209 4.20337C10.0221 4.20337 5.72656 8.49888 5.72656 13.7977C5.72656 19.0964 10.0221 23.392 15.3209 23.392Z" fill="#D48880"/>
<path d="M20.3157 21.5812C13.245 21.5812 7.51307 15.8493 7.51307 8.77861C7.51307 8.60684 7.51758 8.43621 7.52439 8.26624L7.55974 8.15583C6.37406 7.77783 5.03663 7.90391 3.90107 8.61889C1.85726 9.90572 1.24358 12.6057 2.53041 14.6495C3.34998 15.9512 4.74279 16.6716 6.17423 16.6914C6.42143 17.4716 6.76732 18.2169 7.20348 18.9094C10.0268 23.3934 15.9504 24.7398 20.4345 21.9165C20.611 21.8051 20.784 21.688 20.953 21.5654C20.7418 21.5758 20.5294 21.5812 20.3157 21.5812Z" fill="#CC7C74"/>
<path d="M10.4743 17.3683C11.5107 16.7187 11.9314 15.5231 11.4141 14.6979C10.8969 13.8726 9.63739 13.7301 8.60105 14.3797C7.56472 15.0293 7.14396 16.2249 7.66126 17.0502C8.17855 17.8755 9.43802 18.0179 10.4743 17.3683Z" fill="#E6E5F7"/>
<path d="M20.6443 10.9948C21.6806 10.3452 22.1014 9.1496 21.5841 8.32432C21.0668 7.49904 19.8073 7.35661 18.771 8.00619C17.7346 8.65578 17.3139 9.8514 17.8312 10.6767C18.3485 11.502 19.6079 11.6444 20.6443 10.9948Z" fill="#E6E5F7"/>
<path d="M9.4108 14.4029C9.50137 14.5429 9.64348 14.6416 9.80632 14.6776C9.96915 14.7135 10.1396 14.6839 10.2807 14.595C10.4219 14.5062 10.5223 14.3653 10.5602 14.2029C10.5982 14.0405 10.5706 13.8697 10.4835 13.7275L10.004 12.9659C9.9134 12.8259 9.77129 12.7272 9.60846 12.6913C9.44562 12.6553 9.27516 12.6849 9.13404 12.7738C8.99292 12.8626 8.89249 13.0035 8.85453 13.1659C8.81657 13.3283 8.84414 13.4991 8.93125 13.6413L9.4108 14.4029ZM17.3376 9.41193C17.4282 9.55195 17.5703 9.65064 17.7332 9.68661C17.896 9.72257 18.0664 9.69292 18.2076 9.60407C18.3487 9.51522 18.4491 9.37434 18.4871 9.21195C18.525 9.04957 18.4975 8.87876 18.4104 8.73656L17.9308 7.9749C17.8402 7.83488 17.6981 7.73619 17.5353 7.70022C17.3725 7.66426 17.202 7.69391 17.0609 7.78276C16.9198 7.87161 16.8193 8.01249 16.7814 8.17488C16.7434 8.33726 16.771 8.50806 16.8581 8.65027L17.3376 9.41193ZM14.2059 14.048C14.5402 13.8378 14.7914 13.5184 14.9169 13.1439C15.3215 13.194 15.7114 13.1001 16.0408 12.8928C16.8424 12.388 17.0839 11.3252 16.5793 10.5236C16.4887 10.3836 16.3466 10.2849 16.1838 10.2489C16.0209 10.213 15.8505 10.2426 15.7093 10.3315C15.5682 10.4203 15.4678 10.5612 15.4298 10.7236C15.3919 10.886 15.4194 11.0568 15.5065 11.199C15.8238 11.7029 15.062 12.1836 14.7443 11.6789C14.6537 11.5389 14.5116 11.4402 14.3488 11.4043C14.186 11.3683 14.0155 11.3979 13.8744 11.4868C13.7333 11.5756 13.6328 11.7165 13.5949 11.8789C13.5569 12.0413 13.5845 12.2121 13.6716 12.3543C13.7351 12.4554 13.7559 12.5776 13.7294 12.694C13.703 12.8105 13.6314 12.9116 13.5304 12.9754C13.4804 13.0069 13.4246 13.0283 13.3663 13.0382C13.308 13.0482 13.2483 13.0466 13.1906 13.0335C13.133 13.0204 13.0784 12.9961 13.0302 12.9619C12.9819 12.9277 12.9409 12.8843 12.9094 12.8343C12.8188 12.6942 12.6767 12.5956 12.5138 12.5596C12.351 12.5236 12.1805 12.5533 12.0394 12.6421C11.8983 12.731 11.7979 12.8719 11.7599 13.0342C11.722 13.1966 11.7495 13.3674 11.8366 13.5096C12.3368 14.3037 13.3938 14.5594 14.2059 14.048Z" fill="#303646"/>
<path d="M39.4121 24.3483V38.6921C39.4121 40.1949 38.1938 41.4132 36.691 41.4132H19.9766V24.3483L22.6976 20.9543L39.4121 24.3483Z" fill="#F9B467"/>
<path d="M41.8877 28.057L40.2369 23.323C39.7423 21.9046 38.4046 20.9543 36.9024 20.9543H22.6966L25.3572 28.5846C25.5714 29.1988 25.9714 29.7311 26.5017 30.1078C27.0319 30.4845 27.6663 30.6869 28.3168 30.6869H40.0196C41.3815 30.6869 42.3362 29.3429 41.8877 28.057ZM22.6966 20.9543V38.692C22.6966 40.1949 21.4783 41.4131 19.9755 41.4131H5.35778C3.85496 41.4131 2.63672 40.1949 2.63672 38.692V24.3483L22.6966 20.9543Z" fill="#F7C572"/>
<path d="M6.91194 29.4226C6.91194 27.2793 7.37132 25.2435 8.19655 23.4077L2.63672 24.3484V38.6922C2.63672 40.1949 3.85496 41.4132 5.35778 41.4132H12.5561C9.04738 38.7528 6.91194 34.374 6.91194 29.4226Z" fill="#F9B467"/>
<path d="M5.09721 20.9543C3.59506 20.9543 2.25737 21.9046 1.76273 23.323L0.111929 28.057C-0.336454 29.3429 0.618143 30.6869 1.98003 30.6869H17.0766C17.7271 30.6869 18.3615 30.4845 18.8918 30.1078C19.422 29.7311 19.822 29.1988 20.0362 28.5846L22.6969 20.9543H5.09721Z" fill="#F4D68D"/>
<path d="M20.8917 25.1382C19.6084 24.5515 19.0437 23.0354 19.6304 21.752L20.7741 19.2506C21.3608 17.9672 22.8769 17.4025 24.1604 17.9893C25.4437 18.5761 26.0084 20.0922 25.4217 21.3756L24.278 23.8769C23.6893 25.1643 22.1713 25.7234 20.8917 25.1382Z" fill="#E09B94"/>
<path d="M6.91232 29.4224C6.91232 26.2687 7.9067 23.3474 9.59851 20.9543H5.09721C3.59506 20.9543 2.25737 21.9046 1.76273 23.3229L0.111929 28.0569C-0.336454 29.3429 0.618143 30.6868 1.98003 30.6868H6.96014C6.92851 30.2661 6.91256 29.8443 6.91232 29.4224Z" fill="#F7C572"/>
<path d="M6.58705 25.1382C5.30367 24.5515 4.73896 23.0354 5.32573 21.752L6.46941 19.2506C7.0561 17.9672 8.5722 17.4025 9.85566 17.9893C11.139 18.5761 11.7037 20.0922 11.117 21.3756L9.9733 23.8769C9.38464 25.1643 7.86657 25.7234 6.58705 25.1382Z" fill="#E09B94"/>
</g>
<defs>
<clipPath id="clip0_420_1231">
<rect width="42" height="42" fill="white"/>
</clipPath>
</defs>
</svg>
