<svg width="35" height="42" viewBox="0 0 35 42" fill="none" xmlns="http://www.w3.org/2000/svg">
<path d="M4.5625 9.1875C4.5625 9.70964 4.35508 10.2104 3.98587 10.5796C3.61665 10.9488 3.11589 11.1562 2.59375 11.1562C2.07161 11.1562 1.57085 10.9488 1.20163 10.5796C0.832421 10.2104 0.625 9.70964 0.625 9.1875C0.625 8.09813 1.9375 5.90625 2.59375 5.90625C3.25 5.90625 4.5625 8.09813 4.5625 9.1875Z" fill="#F4C39A"/>
<path d="M1.93751 7.875C2.01312 7.17662 2.24893 6.50513 2.62657 5.91281C2.61577 5.91 2.60481 5.9078 2.59376 5.90625C1.93751 5.90625 0.625006 8.09813 0.625006 9.1875C0.623807 9.65971 0.792825 10.1165 1.10108 10.4743C1.40934 10.832 1.83619 11.0666 2.3034 11.1352C2.7706 11.2037 3.24687 11.1016 3.64491 10.8476C4.04295 10.5935 4.3361 10.2045 4.47063 9.75187C4.28809 9.81027 4.09789 9.84123 3.90626 9.84375C3.38411 9.84375 2.88335 9.63633 2.51414 9.26712C2.14493 8.8979 1.93751 8.39714 1.93751 7.875Z" fill="#E3B58F"/>
<path d="M20.3125 0.65625H34.75V16.4062H20.3125V0.65625Z" fill="#5C514D"/>
<path d="M24.25 22.3125H30.8125V34.125H24.25V22.3125ZM7.1875 22.3125H13.75V34.125H7.1875V22.3125Z" fill="#FFF0E6"/>
<path d="M13.0938 4.59375V9.1875H7.84375V5.25H5.875V3.28125H9.15625L13.0938 4.59375Z" fill="#4A413E"/>
<path d="M14.4062 9.1875V11.1562H6.53125V9.1875H13.0938H14.4062Z" fill="#F4C39A"/>
<path d="M15.0625 11.1562V16.4062H5.875V11.1562H14.4062H15.0625Z" fill="#4A413E"/>
<path d="M34.75 34.7812V36.75C34.75 37.2721 34.5426 37.7729 34.1734 38.1421C33.8042 38.5113 33.3034 38.7188 32.7812 38.7188H22.2812C21.7591 38.7188 21.2583 38.5113 20.8891 38.1421C20.5199 37.7729 20.3125 37.2721 20.3125 36.75V16.4062H34.75V34.7812ZM30.8125 34.125V22.3125H24.25V34.125H30.8125Z" fill="#E6A382"/>
<path d="M17.6875 34.7812V36.75C17.6875 37.2721 17.4801 37.7729 17.1109 38.1421C16.7417 38.5113 16.2409 38.7188 15.7188 38.7188H5.21875C4.69661 38.7188 4.19585 38.5113 3.82663 38.1421C3.45742 37.7729 3.25 37.2721 3.25 36.75V16.4062H17.6875V34.7812ZM13.75 34.125V22.3125H7.1875V34.125H13.75Z" fill="#F4C39A"/>
<path d="M15.7188 38.7188H5.21875C4.69661 38.7187 4.19585 38.5113 3.82663 38.1421C3.45742 37.7729 3.25 37.2721 3.25 36.75V40.0312C3.25104 40.379 3.38965 40.7123 3.63557 40.9582C3.88149 41.2041 4.21472 41.3427 4.5625 41.3438H16.375C16.7228 41.3427 17.056 41.2041 17.3019 40.9582C17.5478 40.7123 17.6865 40.379 17.6875 40.0312V36.75C17.6875 37.2721 17.4801 37.7729 17.1109 38.1421C16.7417 38.5113 16.2409 38.7188 15.7188 38.7188ZM32.7812 38.7188H22.2812C21.7591 38.7187 21.2583 38.5113 20.8891 38.1421C20.5199 37.7729 20.3125 37.2721 20.3125 36.75V40.0312C20.3135 40.379 20.4522 40.7123 20.6981 40.9582C20.944 41.2041 21.2772 41.3427 21.625 41.3438H33.4375C33.7853 41.3427 34.1185 41.2041 34.3644 40.9582C34.6103 40.7123 34.749 40.379 34.75 40.0312V36.75C34.75 37.2721 34.5426 37.7729 34.1734 38.1421C33.8042 38.5113 33.3034 38.7188 32.7812 38.7188Z" fill="#F8EAE9"/>
<path d="M5.875 11.1562H9.15625V13.125C9.15625 13.6471 9.36367 14.1479 9.73288 14.5171C10.1021 14.8863 10.6029 15.0937 11.125 15.0938H15.0625V16.4062H5.875V11.1562ZM7.84375 5.25H9.15625L11.125 5.90625V7.875H13.0938V9.1875H7.84375V5.25Z" fill="#2E2827"/>
<path d="M6.53125 9.1875H10.4688V11.1562H6.53125V9.1875Z" fill="#C29B7A"/>
<path d="M3.25 16.4062H8.5V22.3125H7.1875V34.125H8.5C8.5 34.6471 8.70742 35.1479 9.07663 35.5171C9.44585 35.8863 9.94661 36.0938 10.4688 36.0938H17.6875V36.75C17.6875 37.2721 17.4801 37.7729 17.1109 38.1421C16.7417 38.5113 16.2409 38.7188 15.7188 38.7188H5.21875C4.69661 38.7188 4.19585 38.5113 3.82663 38.1421C3.45742 37.7729 3.25 37.2721 3.25 36.75V16.4062Z" fill="#E3B58F"/>
<path d="M7.1875 22.3125H8.5V34.125H7.1875V22.3125Z" fill="#DBD1D0"/>
<path d="M15.7188 21C15.5447 21 15.3778 20.9309 15.2547 20.8078C15.1316 20.6847 15.0625 20.5178 15.0625 20.3438V19.6875H13.75C13.576 19.6875 13.409 19.6184 13.286 19.4953C13.1629 19.3722 13.0938 19.2053 13.0938 19.0312C13.0938 18.8572 13.1629 18.6903 13.286 18.5672C13.409 18.4441 13.576 18.375 13.75 18.375H15.7188C15.8928 18.375 16.0597 18.4441 16.1828 18.5672C16.3059 18.6903 16.375 18.8572 16.375 19.0312V20.3438C16.375 20.5178 16.3059 20.6847 16.1828 20.8078C16.0597 20.9309 15.8928 21 15.7188 21Z" fill="#FFF0E6"/>
<path d="M16.375 22.6406C16.375 22.2782 16.0812 21.9844 15.7188 21.9844C15.3563 21.9844 15.0625 22.2782 15.0625 22.6406V23.2969C15.0625 23.6593 15.3563 23.9531 15.7188 23.9531C16.0812 23.9531 16.375 23.6593 16.375 23.2969V22.6406Z" fill="#FFF0E6"/>
<path d="M8.5 16.4062H17.6875V17.7188H8.5V16.4062Z" fill="#FFD5B3"/>
<path d="M15.7188 38.7188H5.21875C4.69661 38.7187 4.19585 38.5113 3.82663 38.1421C3.45742 37.7729 3.25 37.2721 3.25 36.75V40.0312C3.25104 40.379 3.38965 40.7123 3.63557 40.9582C3.88149 41.2041 4.21472 41.3427 4.5625 41.3438H8.5C8.5 40.9957 8.63828 40.6618 8.88442 40.4157C9.13056 40.1695 9.4644 40.0312 9.8125 40.0312H16.375C16.7231 40.0312 17.0569 39.893 17.3031 39.6468C17.5492 39.4007 17.6875 39.0668 17.6875 38.7188V36.75C17.6875 37.2721 17.4801 37.7729 17.1109 38.1421C16.7417 38.5113 16.2409 38.7188 15.7188 38.7188Z" fill="#DBD1D0"/>
<path d="M20.3125 16.4062H25.5625V22.3125H24.25V34.125H25.5625C25.5625 34.6471 25.7699 35.1479 26.1391 35.5171C26.5083 35.8863 27.0091 36.0938 27.5312 36.0938H34.75V36.75C34.75 37.2721 34.5426 37.7729 34.1734 38.1421C33.8042 38.5113 33.3034 38.7188 32.7812 38.7188H22.2812C21.7591 38.7188 21.2583 38.5113 20.8891 38.1421C20.5199 37.7729 20.3125 37.2721 20.3125 36.75V16.4062Z" fill="#D49778"/>
<path d="M24.25 22.3125H25.5625V34.125H24.25V22.3125Z" fill="#DBD1D0"/>
<path d="M32.7812 21C32.6072 21 32.4403 20.9309 32.3172 20.8078C32.1941 20.6847 32.125 20.5178 32.125 20.3438V19.6875H30.8125C30.6385 19.6875 30.4715 19.6184 30.3485 19.4953C30.2254 19.3722 30.1562 19.2053 30.1562 19.0312C30.1562 18.8572 30.2254 18.6903 30.3485 18.5672C30.4715 18.4441 30.6385 18.375 30.8125 18.375H32.7812C32.9553 18.375 33.1222 18.4441 33.2453 18.5672C33.3684 18.6903 33.4375 18.8572 33.4375 19.0312V20.3438C33.4375 20.5178 33.3684 20.6847 33.2453 20.8078C33.1222 20.9309 32.9553 21 32.7812 21Z" fill="#FFF0E6"/>
<path d="M33.4375 22.6406C33.4375 22.2782 33.1437 21.9844 32.7812 21.9844C32.4188 21.9844 32.125 22.2782 32.125 22.6406V23.2969C32.125 23.6593 32.4188 23.9531 32.7812 23.9531C33.1437 23.9531 33.4375 23.6593 33.4375 23.2969V22.6406Z" fill="#FFF0E6"/>
<path d="M25.5625 16.4062H34.75V17.7188H25.5625V16.4062Z" fill="#FFB590"/>
<path d="M32.7812 38.7188H22.2812C21.7591 38.7187 21.2583 38.5113 20.8891 38.1421C20.5199 37.7729 20.3125 37.2721 20.3125 36.75V40.0312C20.3135 40.379 20.4522 40.7123 20.6981 40.9582C20.944 41.2041 21.2772 41.3427 21.625 41.3438H25.5625C25.5625 40.9957 25.7008 40.6618 25.9469 40.4157C26.1931 40.1695 26.5269 40.0312 26.875 40.0312H33.4375C33.7856 40.0312 34.1194 39.893 34.3656 39.6468C34.6117 39.4007 34.75 39.0668 34.75 38.7188V36.75C34.75 37.2721 34.5426 37.7729 34.1734 38.1421C33.8042 38.5113 33.3034 38.7188 32.7812 38.7188Z" fill="#DBD1D0"/>
<path d="M13.75 40.0312H15.7188V41.3438H13.75V40.0312Z" fill="#FFF3F2"/>
<path d="M20.3125 0.65625H25.5625V11.8125C25.5625 12.5087 25.8391 13.1764 26.3313 13.6687C26.8236 14.1609 27.4913 14.4375 28.1875 14.4375H34.75V16.4062H20.3125V0.65625Z" fill="#2E2827"/>
</svg>
