<svg width="42" height="42" viewBox="0 0 42 42" fill="none" xmlns="http://www.w3.org/2000/svg">
<path d="M35.4371 26.9062V19.0312H27.5621V24.9375C27.7905 25.5764 27.9576 26.2356 28.0611 26.9062H35.4371ZM31.4996 20.3438C32.0187 20.3438 32.5263 20.4977 32.9579 20.7861C33.3896 21.0746 33.7261 21.4845 33.9248 21.9642C34.1234 22.4439 34.1754 22.9717 34.0741 23.4809C33.9728 23.9901 33.7228 24.4578 33.3557 24.8249C32.9886 25.192 32.5209 25.442 32.0117 25.5433C31.5025 25.6446 30.9747 25.5926 30.495 25.3939C30.0154 25.1953 29.6054 24.8588 29.317 24.4271C29.0285 23.9954 28.8746 23.4879 28.8746 22.9688C28.8754 22.2728 29.1522 21.6056 29.6443 21.1135C30.1364 20.6213 30.8036 20.3445 31.4996 20.3438ZM14.4297 21.6562C17.1952 21.6562 19.537 20.7908 21.202 19.1536C22.7595 17.622 23.6172 15.4811 23.6172 13.125C23.6172 10.7689 22.7595 8.62796 21.202 7.09644C19.537 5.45918 17.1952 4.59375 14.4297 4.59375C11.6642 4.59375 9.32234 5.45918 7.65743 7.09636C6.09991 8.62796 5.24219 10.7689 5.24219 13.125C5.24219 15.4811 6.09991 17.622 7.65743 19.1536C9.32234 20.7908 11.6644 21.6562 14.4297 21.6562ZM18.3672 11.1562C18.497 11.1562 18.6239 11.1947 18.7318 11.2668C18.8397 11.339 18.9238 11.4415 18.9735 11.5614C19.0232 11.6813 19.0361 11.8132 19.0108 11.9405C18.9855 12.0678 18.923 12.1848 18.8312 12.2765C18.7394 12.3683 18.6225 12.4308 18.4952 12.4561C18.3679 12.4815 18.236 12.4685 18.1161 12.4188C17.9961 12.3691 17.8936 12.285 17.8215 12.1771C17.7494 12.0692 17.7109 11.9423 17.7109 11.8125C17.7109 11.6385 17.7801 11.4715 17.9031 11.3485C18.0262 11.2254 18.1931 11.1562 18.3672 11.1562ZM10.4922 11.1562C10.622 11.1562 10.7489 11.1947 10.8568 11.2668C10.9647 11.339 11.0488 11.4415 11.0985 11.5614C11.1482 11.6813 11.1611 11.8132 11.1358 11.9405C11.1105 12.0678 11.048 12.1848 10.9562 12.2765C10.8644 12.3683 10.7475 12.4308 10.6202 12.4561C10.4929 12.4815 10.361 12.4685 10.2411 12.4188C10.1211 12.3691 10.0186 12.285 9.94654 12.1771C9.87443 12.0692 9.83594 11.9423 9.83594 11.8125C9.83594 11.6385 9.90508 11.4715 10.0281 11.3485C10.1512 11.2254 10.3181 11.1562 10.4922 11.1562ZM9.83594 14.7656C10.01 14.7656 10.1769 14.8348 10.3 14.9578C10.423 15.0809 10.4922 15.2478 10.4922 15.4219C10.4922 16.8825 11.9137 18.0981 13.7734 18.3332V16.2504C13.704 16.2158 13.6374 16.1758 13.5742 16.1307L12.4601 15.3357C12.2557 15.1873 12.0896 14.9924 11.9756 14.7671C11.8616 14.5418 11.8029 14.2926 11.8044 14.0401C11.8044 13.1736 12.4823 12.4688 13.3155 12.4688H15.5432C16.3765 12.4688 17.0544 13.1736 17.0544 14.0401C17.0559 14.2926 16.9972 14.5418 16.8831 14.7671C16.7691 14.9924 16.603 15.1873 16.3986 15.3357L15.2849 16.1305C15.2217 16.1755 15.1551 16.2155 15.0857 16.2501V18.3332C16.9454 18.0981 18.3669 16.8825 18.3669 15.4219C18.3669 15.2478 18.4361 15.0809 18.5592 14.9578C18.6822 14.8348 18.8491 14.7656 19.0232 14.7656C19.1972 14.7656 19.3642 14.8348 19.4872 14.9578C19.6103 15.0809 19.6794 15.2478 19.6794 15.4219C19.6794 17.774 17.3243 19.6875 14.4294 19.6875C11.5346 19.6875 9.17944 17.774 9.17944 15.4219C9.17944 15.3357 9.19642 15.2503 9.22942 15.1707C9.26241 15.091 9.31077 15.0187 9.37174 14.9577C9.4327 14.8968 9.50508 14.8485 9.58473 14.8155C9.66437 14.7825 9.74974 14.7656 9.83594 14.7656Z" fill="#30C36D"/>
<path d="M31.5 24.2812C32.2249 24.2812 32.8125 23.6936 32.8125 22.9688C32.8125 22.2439 32.2249 21.6562 31.5 21.6562C30.7751 21.6562 30.1875 22.2439 30.1875 22.9688C30.1875 23.6936 30.7751 24.2812 31.5 24.2812Z" fill="#30C36D"/>
<path d="M14.5235 15.0621L15.6372 14.2674C15.6713 14.2403 15.6986 14.2057 15.717 14.1662C15.7353 14.1268 15.7442 14.0836 15.7429 14.0401C15.7429 13.8998 15.652 13.7813 15.5443 13.7813H13.3166C13.209 13.7813 13.1179 13.8998 13.1179 14.0401C13.1166 14.0836 13.1255 14.1268 13.1439 14.1662C13.1622 14.2057 13.1895 14.2403 13.2236 14.2674L14.3373 15.0621C14.364 15.0826 14.3967 15.0938 14.4304 15.0938C14.4641 15.0938 14.4968 15.0826 14.5235 15.0621ZM19.1536 22.0644C20.6236 23.7887 21.5233 26.2517 21.6428 28.9209C22.9068 29.0953 24.0332 29.7759 24.8559 30.7779C25.3993 30.6536 25.8892 30.3599 26.2549 29.9391C26.6205 29.5183 26.843 28.9922 26.8903 28.4367L26.8312 27.5957C26.4776 24.3708 24.7066 21.9195 21.7005 20.4793C20.9399 21.138 20.0804 21.6729 19.1536 22.0644ZM23.9608 8.73995C24.3965 8.48516 24.7674 8.13332 25.0449 7.71179C25.3224 7.29026 25.4989 6.81041 25.5607 6.30955C25.6226 5.80869 25.568 5.30031 25.4014 4.82397C25.2347 4.34762 24.9604 3.91614 24.5998 3.56307C24.2392 3.21 23.802 2.94487 23.3223 2.78829C22.8425 2.63171 22.3331 2.5879 21.8337 2.66027C21.3342 2.73264 20.8582 2.91924 20.4426 3.20555C20.027 3.49187 19.6831 3.87019 19.4375 4.31108C20.4327 4.76806 21.3412 5.39378 22.123 6.16056C22.8807 6.90713 23.5026 7.77997 23.9608 8.73995ZM31.5003 12.9568L28.167 17.7188H34.8337L31.5003 12.9568ZM9.42334 4.31108C9.1778 3.87017 8.83386 3.49184 8.41828 3.20551C8.00269 2.91918 7.52666 2.73257 7.02721 2.6602C6.52775 2.58782 6.01833 2.63163 5.53857 2.78822C5.0588 2.9448 4.62162 3.20994 4.26102 3.56302C3.90043 3.91609 3.62613 4.34759 3.45947 4.82395C3.29281 5.30031 3.23828 5.80869 3.30011 6.30956C3.36195 6.81043 3.53848 7.29029 3.81599 7.71181C4.0935 8.13334 4.4645 8.48517 4.90013 8.73995C5.35827 7.77995 5.98015 6.9071 6.73788 6.16056C7.51962 5.39374 8.42818 4.76801 9.42334 4.31108Z" fill="#30C36D"/>
<path d="M21 39.375C23.1746 39.375 24.9375 37.3183 24.9375 34.7812C24.9375 32.2442 23.1746 30.1875 21 30.1875C18.8254 30.1875 17.0625 32.2442 17.0625 34.7812C17.0625 37.3183 18.8254 39.375 21 39.375Z" fill="#30C36D"/>
<path d="M28.219 33.4688V30.8438H27.2051C26.7664 31.3328 26.2129 31.7051 25.5945 31.9271C25.8346 32.4163 26.0105 32.9345 26.1179 33.4688H28.219ZM20.3288 28.925C20.2034 26.353 19.2839 24.0227 17.8027 22.5338C16.7032 22.8292 15.5689 22.9755 14.4303 22.9688C13.2956 22.9755 12.1651 22.8302 11.069 22.5368C9.59245 24.0261 8.67304 26.3658 8.54688 28.9251C11.1255 29.2974 13.1252 31.7807 13.1252 34.7813C13.1283 35.751 12.913 36.7091 12.4952 37.5843C13.0945 37.8984 13.7611 38.0625 14.4377 38.0625C15.1143 38.0625 15.7809 37.8984 16.3802 37.5843C15.9624 36.7091 15.7471 35.751 15.7502 34.7813C15.7502 31.7806 17.75 29.2972 20.3288 28.925Z" fill="#30C36D"/>
<path d="M7.875 39.375C10.0496 39.375 11.8125 37.3183 11.8125 34.7812C11.8125 32.2442 10.0496 30.1875 7.875 30.1875C5.70038 30.1875 3.9375 32.2442 3.9375 34.7812C3.9375 37.3183 5.70038 39.375 7.875 39.375Z" fill="#30C36D"/>
<path d="M32.1565 36.0938H40.0315V28.2188H32.1565V36.0938ZM33.5383 33.8315L35.507 29.894C35.5616 29.785 35.6453 29.6934 35.749 29.6293C35.8527 29.5652 35.9721 29.5313 36.094 29.5313C36.2158 29.5313 36.3353 29.5652 36.439 29.6293C36.5426 29.6934 36.6264 29.785 36.6809 29.894L38.6497 33.8315C38.6997 33.9316 38.7233 34.0427 38.7183 34.1545C38.7133 34.2662 38.6798 34.3748 38.621 34.47C38.5622 34.5652 38.48 34.6437 38.3823 34.6982C38.2846 34.7527 38.1746 34.7813 38.0627 34.7813H34.1252C34.0134 34.7813 33.9034 34.7527 33.8057 34.6982C33.708 34.6437 33.6258 34.5652 33.567 34.47C33.5082 34.3748 33.4747 34.2662 33.4697 34.1545C33.4646 34.0427 33.4883 33.9316 33.5383 33.8315ZM7.23284 28.9208C7.35302 26.2645 8.25372 23.7943 9.71937 22.0695C8.78797 21.6775 7.92433 21.1408 7.16041 20.4793C4.15438 21.9194 2.38324 24.3708 2.0296 27.5953L1.9707 28.4365C2.01813 28.9941 2.24216 29.522 2.61024 29.9436C2.97832 30.3651 3.47126 30.6582 4.01738 30.7804C4.84007 29.7774 5.96767 29.0954 7.23284 28.9208Z" fill="#30C36D"/>
<path d="M36.0933 31.655L35.1863 33.4688H37.0002L36.0933 31.655ZM28.2018 28.3918C28.2039 28.4214 28.2039 28.4512 28.2018 28.4808C28.1782 28.8392 28.1053 29.1927 27.985 29.5312H28.8745C29.0486 29.5312 29.2155 29.6004 29.3385 29.7235C29.4616 29.8465 29.5308 30.0135 29.5308 30.1875V34.125C29.5308 34.299 29.4616 34.466 29.3385 34.589C29.2155 34.7121 29.0486 34.7812 28.8745 34.7812H26.2495C26.2493 35.2221 26.205 35.6618 26.1172 36.0938H30.8433V28.2188H28.1898L28.2018 28.3918Z" fill="#30C36D"/>
</svg>
