<svg width="34" height="34" viewBox="0 0 34 34" fill="none" xmlns="http://www.w3.org/2000/svg">
<path d="M31.4557 20.0546L28.8645 15.5666C28.804 15.4618 28.7096 15.3809 28.5969 15.3371L23.1259 13.2098C23.3001 12.6216 23.3884 12.0113 23.3881 11.3978C23.3881 7.87525 20.5223 5.00949 16.9998 5.00949C13.4773 5.00949 10.6115 7.87525 10.6115 11.3978C10.6112 12.0113 10.6995 12.6216 10.8737 13.2098L5.40267 15.3371C5.28997 15.3809 5.19558 15.4618 5.13512 15.5666L2.54388 20.0546C2.50556 20.1209 2.48205 20.1947 2.47494 20.271C2.46784 20.3473 2.47732 20.4242 2.50274 20.4964C2.52815 20.5687 2.5689 20.6346 2.62219 20.6897C2.67547 20.7447 2.74003 20.7876 2.81144 20.8153L5.06387 21.6911V29.0011C5.06388 29.1082 5.09623 29.2128 5.15669 29.3011C5.21715 29.3895 5.30289 29.4575 5.40267 29.4963L16.8072 33.9307C16.931 33.9789 17.0684 33.9789 17.1922 33.9307L28.5968 29.4963C28.6966 29.4575 28.7823 29.3895 28.8428 29.3011C28.9032 29.2128 28.9356 29.1082 28.9356 29.0011V21.6911L31.188 20.8153C31.2594 20.7876 31.324 20.7447 31.3772 20.6896C31.4305 20.6346 31.4712 20.5687 31.4966 20.4964C31.5221 20.4242 31.5316 20.3473 31.5246 20.271C31.5175 20.1947 31.494 20.1209 31.4557 20.0546ZM16.9999 6.07199C19.9365 6.07199 22.3256 8.46115 22.3256 11.3978C22.3256 14.3344 19.9365 16.7236 16.9999 16.7236C14.0632 16.7236 11.6741 14.3344 11.6741 11.3978C11.6741 8.46115 14.0632 6.07199 16.9999 6.07199ZM16.9999 17.7861C19.5311 17.7861 21.7233 16.3062 22.7566 14.1662L26.9491 15.8281L16.9999 19.6966L7.05054 15.8281L11.2431 14.1662C12.2764 16.3062 14.4685 17.7861 16.9999 17.7861ZM3.77379 20.0494L5.82747 16.4925L16.2301 20.5373L14.1764 24.0944L3.77379 20.0494ZM6.1265 22.1043L14.2162 25.2498C14.3344 25.2957 14.4652 25.2979 14.5849 25.2558C14.7046 25.2137 14.8053 25.1301 14.8688 25.0203L16.4686 22.2493V32.659L6.1265 28.6377V22.1043ZM27.8732 28.6377L17.5311 32.659V22.2493L19.131 25.0203C19.1944 25.1302 19.2951 25.2138 19.4148 25.2558C19.5345 25.2979 19.6653 25.2958 19.7835 25.2498L27.8732 22.1043V28.6377ZM19.8233 24.0944L17.7696 20.5373L28.1722 16.4925L30.2259 20.0494L19.8233 24.0944ZM15.678 14.8486C16.0458 14.8486 16.3919 14.7051 16.6526 14.4444L20.7939 10.3031C21.332 9.76497 21.332 8.88934 20.7938 8.35105C20.5332 8.09041 20.1866 7.94684 19.8179 7.94684C19.4493 7.94684 19.1027 8.09041 18.842 8.35105L15.7935 11.3996L14.9799 10.3758C14.8511 10.2129 14.687 10.0814 14.4999 9.9912C14.3129 9.90098 14.1078 9.8544 13.9002 9.85495C13.5888 9.85548 13.2867 9.96099 13.0427 10.1544C12.4477 10.6276 12.3485 11.4966 12.8214 12.0915L14.5548 14.2728C14.683 14.451 14.8516 14.5962 15.0469 14.6963C15.2422 14.7965 15.4586 14.8487 15.678 14.8486ZM13.7038 10.9861C13.7595 10.9415 13.8287 10.9172 13.9001 10.9174C13.9974 10.9174 14.0877 10.9609 14.148 11.0368L15.3321 12.5268C15.3786 12.5854 15.4371 12.6335 15.5035 12.6679C15.57 12.7024 15.643 12.7224 15.7177 12.7267C15.7925 12.7309 15.8673 12.7193 15.9372 12.6927C16.0072 12.666 16.0707 12.6249 16.1236 12.572L19.5932 9.10237C19.6531 9.04234 19.7329 9.00934 19.8179 9.00934C19.9028 9.00934 19.9825 9.04241 20.0425 9.10231C20.102 9.16196 20.1354 9.2428 20.1354 9.32708C20.1355 9.41136 20.102 9.4922 20.0425 9.55188L15.9012 13.6932C15.8721 13.7228 15.8374 13.7464 15.799 13.7623C15.7606 13.7783 15.7195 13.7864 15.6779 13.7861C15.6263 13.7865 15.5754 13.7743 15.5296 13.7505C15.4838 13.7267 15.4446 13.692 15.4153 13.6495C15.409 13.6405 15.4025 13.6318 15.3956 13.6232L13.6532 11.4304C13.6011 11.3648 13.5772 11.2811 13.5867 11.1978C13.5962 11.1145 13.6383 11.0384 13.7038 10.9861ZM16.4686 3.05263V0.564453C16.4686 0.423557 16.5246 0.288431 16.6242 0.188803C16.7238 0.089174 16.859 0.0332031 16.9999 0.0332031C17.1408 0.0332031 17.2759 0.089174 17.3755 0.188803C17.4751 0.288431 17.5311 0.423557 17.5311 0.564453V3.05263C17.5311 3.19353 17.4751 3.32865 17.3755 3.42828C17.2759 3.52791 17.1408 3.58388 16.9999 3.58388C16.859 3.58388 16.7238 3.52791 16.6242 3.42828C16.5246 3.32865 16.4686 3.19353 16.4686 3.05263ZM11.1044 2.21153C11.0339 2.0895 11.0148 1.94449 11.0513 1.80839C11.0878 1.67229 11.1768 1.55625 11.2989 1.48581C11.4209 1.41536 11.5659 1.39627 11.702 1.43274C11.8381 1.46921 11.9541 1.55825 12.0246 1.68028L13.2686 3.83509C13.3391 3.95712 13.3582 4.10213 13.3217 4.23823C13.2852 4.37433 13.1962 4.49037 13.0742 4.56081C12.9521 4.63126 12.8071 4.65035 12.671 4.61388C12.5349 4.57741 12.4189 4.48837 12.3484 4.36634L11.1044 2.21153ZM7.08793 5.59439C7.1228 5.53397 7.16924 5.481 7.22458 5.43852C7.27993 5.39605 7.3431 5.36489 7.41049 5.34683C7.47788 5.32878 7.54817 5.32417 7.61734 5.33329C7.68651 5.3424 7.75321 5.36506 7.81362 5.39996L9.96844 6.64401C10.0895 6.71496 10.1775 6.8309 10.2134 6.96652C10.2492 7.10215 10.23 7.24645 10.1598 7.36794C10.0897 7.48943 9.97434 7.57825 9.83895 7.615C9.70357 7.65176 9.55914 7.63347 9.43719 7.56414L7.28237 6.32008C7.16036 6.24963 7.07132 6.1336 7.03486 5.99751C6.9984 5.86141 7.01749 5.71641 7.08793 5.59439ZM5.49551 11.2579C5.49551 11.117 5.55148 10.9819 5.65111 10.8823C5.75074 10.7826 5.88586 10.7267 6.02676 10.7267H8.51487C8.80832 10.7267 9.04612 10.9645 9.04612 11.2579C9.04612 11.5513 8.80832 11.7892 8.51487 11.7892H6.02676C5.88586 11.7892 5.75074 11.7332 5.65111 11.6336C5.55148 11.5339 5.49551 11.3988 5.49551 11.2579ZM20.6936 3.97488L21.9377 1.82006C21.9726 1.75963 22.019 1.70667 22.0743 1.66419C22.1297 1.62171 22.1929 1.59056 22.2603 1.5725C22.3276 1.55444 22.3979 1.54984 22.4671 1.55896C22.5363 1.56807 22.603 1.59073 22.6634 1.62563C22.7238 1.6605 22.7768 1.70694 22.8192 1.76229C22.8617 1.81763 22.8929 1.8808 22.9109 1.94819C22.929 2.01557 22.9336 2.08586 22.9245 2.15502C22.9154 2.22419 22.8928 2.29089 22.8579 2.35131L21.6138 4.50613C21.5789 4.56657 21.5325 4.61954 21.4771 4.66202C21.4218 4.70451 21.3586 4.73567 21.2912 4.75372C21.2238 4.77178 21.1535 4.77638 21.0843 4.76726C21.0151 4.75814 20.9484 4.73548 20.888 4.70057C20.766 4.63011 20.677 4.51407 20.6405 4.37798C20.6041 4.24188 20.6232 4.09689 20.6936 3.97488ZM23.6971 7.61188C23.6266 7.48987 23.6075 7.34486 23.644 7.20877C23.6805 7.07268 23.7695 6.95665 23.8915 6.8862L26.0463 5.64214C26.1683 5.5728 26.3127 5.55452 26.4481 5.59127C26.5835 5.62803 26.6988 5.71684 26.769 5.83833C26.8391 5.95982 26.8584 6.10413 26.8225 6.23975C26.7866 6.37538 26.6986 6.49132 26.5776 6.56227L24.4228 7.80632C24.3623 7.84124 24.2956 7.8639 24.2265 7.87303C24.1573 7.88215 24.087 7.87756 24.0196 7.8595C23.9522 7.84144 23.889 7.81028 23.8337 7.76779C23.7784 7.7253 23.7319 7.67232 23.6971 7.61188ZM25.2052 11.0063H27.6933C27.9868 11.0063 28.2246 11.2442 28.2246 11.5376C28.2246 11.8309 27.9868 12.0688 27.6933 12.0688H25.2052C25.0643 12.0688 24.9292 12.0128 24.8296 11.9132C24.7299 11.8136 24.674 11.6785 24.674 11.5376C24.674 11.3967 24.7299 11.2615 24.8296 11.1619C24.9292 11.0623 25.0643 11.0063 25.2052 11.0063Z" fill="#19232F"/>
</svg>
