<svg width="34" height="34" viewBox="0 0 34 34" fill="none" xmlns="http://www.w3.org/2000/svg">
<path d="M17.0004 21.0313C19.6198 21.0317 22.1415 20.0363 24.0543 18.2467C24.0809 18.2255 24.1062 18.2028 24.1302 18.1787C25.8751 16.5192 26.9873 14.3036 27.2757 11.9128C27.564 9.52207 27.0103 7.10557 25.7099 5.07881C24.4095 3.05205 22.4437 1.54166 20.1503 0.807339C17.8569 0.0730191 15.3794 0.160651 13.1436 1.05517C10.9078 1.94969 9.05357 3.59519 7.89963 5.70877C6.74569 7.82234 6.36416 10.2719 6.82066 12.6363C7.27716 15.0007 8.54315 17.1322 10.401 18.6643C12.2588 20.1964 14.5923 21.0334 17.0004 21.0313ZM11.3915 17.2607C11.5385 16.4615 11.8514 15.7019 12.3099 15.031C12.7684 14.3601 13.3625 13.7927 14.0537 13.3654C14.418 13.7831 14.8651 14.1204 15.3668 14.3559C15.8684 14.5914 16.4135 14.7199 16.9675 14.7334C17.5225 14.7204 18.0688 14.592 18.5714 14.3563C19.0741 14.1206 19.5221 13.7827 19.887 13.3643C20.5867 13.7952 21.1865 14.3704 21.6464 15.0515C22.1062 15.7326 22.4155 16.5039 22.5537 17.314C20.9876 18.6261 19.0071 19.3408 16.964 19.3311C14.9209 19.3213 12.9473 18.5878 11.3938 17.2607H11.3915ZM16.9675 13.0356C15.3129 13.0356 14.0673 10.778 14.0673 9.3183C14.068 8.98141 14.1363 8.64809 14.2683 8.33814C14.4003 8.02819 14.5933 7.74794 14.8357 7.51403C15.3981 6.96382 16.1536 6.65583 16.9403 6.6561H16.9936C17.7806 6.65602 18.5364 6.96395 19.0993 7.51403C19.3412 7.74744 19.5338 8.02697 19.6658 8.33609C19.7977 8.64521 19.8664 8.97765 19.8677 9.31376C19.8677 10.778 18.6233 13.0334 16.9675 13.0334V13.0356ZM17.0004 1.98336C18.6112 1.98067 20.1908 2.42736 21.5617 3.27323C22.9325 4.1191 24.0403 5.33059 24.7603 6.77152C25.4804 8.21244 25.7842 9.82565 25.6376 11.4298C25.4911 13.0339 24.9 14.5654 23.9307 15.852C23.3799 14.2497 22.3009 12.8821 20.8707 11.9737C21.3074 11.1517 21.5479 10.2397 21.5734 9.30923C21.5707 8.74874 21.4566 8.19437 21.2378 7.67837C21.0189 7.16238 20.6996 6.69507 20.2984 6.30363C19.4167 5.44104 18.2327 4.95743 16.9993 4.9561H16.946C15.712 4.95756 14.5276 5.44159 13.6457 6.30476C13.2447 6.69691 12.9257 7.16488 12.7072 7.68145C12.4887 8.19802 12.3751 8.75289 12.373 9.31376C12.3988 10.2423 12.6389 11.1522 13.0745 11.9726C11.6619 12.8727 10.5905 14.2189 10.0304 15.7976C9.07433 14.5082 8.49553 12.9785 8.35864 11.3792C8.22176 9.7799 8.53218 8.17404 9.25523 6.74098C9.97829 5.30793 11.0855 4.1041 12.4532 3.26395C13.8209 2.42381 15.3953 1.98044 17.0004 1.98336Z" fill="#19232F"/>
<path d="M9.11251 29.5778C9.87363 29.5778 10.4906 28.9608 10.4906 28.1997C10.4906 27.4385 9.87363 26.8215 9.11251 26.8215C8.35139 26.8215 7.73438 27.4385 7.73438 28.1997C7.73438 28.9608 8.35139 29.5778 9.11251 29.5778Z" fill="#19232F"/>
<path d="M14.3703 29.5778C15.1314 29.5778 15.7485 28.9608 15.7485 28.1997C15.7485 27.4385 15.1314 26.8215 14.3703 26.8215C13.6092 26.8215 12.9922 27.4385 12.9922 28.1997C12.9922 28.9608 13.6092 29.5778 14.3703 29.5778Z" fill="#19232F"/>
<path d="M19.6301 29.5778C20.3912 29.5778 21.0082 28.9608 21.0082 28.1997C21.0082 27.4385 20.3912 26.8215 19.6301 26.8215C18.869 26.8215 18.252 27.4385 18.252 28.1997C18.252 28.9608 18.869 29.5778 19.6301 29.5778Z" fill="#19232F"/>
<path d="M24.8879 29.5778C25.649 29.5778 26.266 28.9608 26.266 28.1997C26.266 27.4385 25.649 26.8215 24.8879 26.8215C24.1268 26.8215 23.5098 27.4385 23.5098 28.1997C23.5098 28.9608 24.1268 29.5778 24.8879 29.5778Z" fill="#19232F"/>
<path d="M26.5902 22.6826H7.40965C5.94643 22.6826 4.54314 23.2639 3.50849 24.2985C2.47384 25.3332 1.89258 26.7365 1.89258 28.1997C1.89258 29.6629 2.47384 31.0662 3.50849 32.1008C4.54314 33.1355 5.94643 33.7168 7.40965 33.7168H26.5902C28.0534 33.7168 29.4567 33.1355 30.4913 32.1008C31.526 31.0662 32.1072 29.6629 32.1072 28.1997C32.1072 26.7365 31.526 25.3332 30.4913 24.2985C29.4567 23.2639 28.0534 22.6826 26.5902 22.6826ZM26.5902 32.0168H7.40965C6.3973 32.0168 5.42641 31.6146 4.71057 30.8988C3.99473 30.1829 3.59258 29.212 3.59258 28.1997C3.59258 27.1873 3.99473 26.2164 4.71057 25.5006C5.42641 24.7848 6.3973 24.3826 7.40965 24.3826H26.5902C27.0914 24.3826 27.5878 24.4813 28.0509 24.6732C28.514 24.865 28.9348 25.1462 29.2893 25.5006C29.6437 25.8551 29.9249 26.2758 30.1167 26.739C30.3085 27.2021 30.4072 27.6984 30.4072 28.1997C30.4072 28.7009 30.3085 29.1973 30.1167 29.6604C29.9249 30.1235 29.6437 30.5443 29.2893 30.8988C28.9348 31.2532 28.514 31.5344 28.0509 31.7262C27.5878 31.918 27.0914 32.0168 26.5902 32.0168Z" fill="#19232F"/>
</svg>
